<?xml version="1.0" encoding="utf-8" standalone="no"?>
<!DOCTYPE svg PUBLIC "-//W3C//DTD SVG 1.1//EN"
  "http://www.w3.org/Graphics/SVG/1.1/DTD/svg11.dtd">
<!-- Created with matplotlib (https://matplotlib.org/) -->
<svg height="253.034375pt" version="1.1" viewBox="0 0 716.920312 253.034375" width="716.920312pt" xmlns="http://www.w3.org/2000/svg" xmlns:xlink="http://www.w3.org/1999/xlink">
 <defs>
  <style type="text/css">
*{stroke-linecap:butt;stroke-linejoin:round;}
  </style>
 </defs>
 <g id="figure_1">
  <g id="patch_1">
   <path d="M 0 253.034375 
L 716.920312 253.034375 
L 716.920312 0 
L 0 0 
z
" style="fill:#ffffff;"/>
  </g>
  <g id="axes_1">
   <g id="patch_2">
    <path d="M 40.120313 180 
L 709.720313 180 
L 709.720313 7.2 
L 40.120313 7.2 
z
" style="fill:#ffffff;"/>
   </g>
   <g id="matplotlib.axis_1">
    <g id="xtick_1">
     <g id="line2d_1"/>
     <g id="text_1">
      <!-- electronic -->
      <defs>
       <path d="M 43.703125 31.6875 
L 11.3125 31.6875 
Q 11.3125 24.703125 13.3125 19.140625 
Q 15.328125 13.578125 19.109375 10.390625 
Q 22.90625 7.203125 27.90625 7.203125 
Q 31.375 7.203125 34.5 8.84375 
Q 37.640625 10.5 40.015625 13.359375 
Q 42.390625 16.21875 43.703125 19.796875 
L 45.40625 19.1875 
Q 43.453125 13.25 40.609375 8.75 
Q 37.765625 4.25 33.59375 1.625 
Q 29.421875 -1 23.90625 -1 
Q 18.953125 -1 15.09375 1.28125 
Q 11.25 3.5625 8.671875 7.453125 
Q 6.109375 11.359375 4.796875 16.21875 
Q 3.5 21.09375 3.5 26.296875 
Q 3.5 33.109375 6.109375 38.984375 
Q 8.734375 44.875 13.671875 48.34375 
Q 18.609375 51.8125 25.09375 51.8125 
Q 31.421875 51.8125 35.609375 48.90625 
Q 39.796875 46 41.75 41.40625 
Q 43.703125 36.8125 43.703125 31.6875 
z
M 11.5 35.109375 
L 32.6875 35.109375 
Q 32.6875 38.28125 31.546875 41.1875 
Q 30.421875 44.109375 28.0625 45.953125 
Q 25.703125 47.796875 22.1875 47.796875 
Q 16.96875 47.796875 14.53125 43.859375 
Q 12.09375 39.921875 11.5 35.109375 
z
" id="Times-101"/>
       <path d="M 2.203125 69.09375 
L 19.1875 75.609375 
L 19.1875 9.796875 
Q 19.1875 5.890625 20.5625 3.640625 
Q 21.953125 1.390625 26.90625 1.390625 
L 28 1.390625 
L 28 0 
L 1.390625 0 
L 1.390625 1.390625 
L 2.484375 1.390625 
Q 7.46875 1.390625 8.828125 3.640625 
Q 10.203125 5.890625 10.203125 9.796875 
L 10.203125 60.796875 
Q 10.203125 68.40625 6.203125 68.40625 
Q 4.296875 68.40625 2.71875 67.703125 
z
" id="Times-108"/>
       <path d="M 44.40625 19.1875 
L 46.40625 18.609375 
Q 43.75 8.5625 38.390625 3.78125 
Q 33.03125 -1 25.296875 -1 
Q 19.359375 -1 14.359375 2.21875 
Q 9.375 5.4375 6.4375 11.46875 
Q 3.5 17.5 3.5 25.484375 
Q 3.5 30.734375 5.1875 35.515625 
Q 6.890625 40.3125 10.078125 43.984375 
Q 13.265625 47.65625 17.671875 49.734375 
Q 22.09375 51.8125 27.484375 51.8125 
Q 31.765625 51.8125 35.609375 50.375 
Q 39.453125 48.953125 41.765625 46.453125 
Q 44.09375 43.953125 44.09375 40.890625 
Q 44.09375 37.984375 42.671875 36.6875 
Q 41.265625 35.40625 39.40625 35.40625 
Q 34.625 35.40625 33.90625 40.890625 
Q 33.453125 44.40625 31.953125 46.390625 
Q 30.453125 48.390625 26.296875 48.390625 
Q 22.578125 48.390625 19.421875 46.15625 
Q 16.28125 43.921875 14.4375 39.46875 
Q 12.59375 35.015625 12.59375 28.8125 
Q 12.59375 22.140625 14.75 17.3125 
Q 16.921875 12.5 20.75 10.046875 
Q 24.59375 7.59375 29.5 7.59375 
Q 33.15625 7.59375 36.203125 9.171875 
Q 39.265625 10.765625 41.359375 13.421875 
Q 43.453125 16.09375 44.40625 19.1875 
z
" id="Times-99"/>
       <path d="M 17.40625 50.8125 
L 28.390625 50.8125 
L 28.390625 47 
L 17.40625 47 
L 17.40625 15.09375 
Q 17.40625 10.578125 18.765625 7.734375 
Q 20.125 4.90625 24.203125 4.90625 
Q 27.859375 4.90625 31.5 9.203125 
L 32.5 8.296875 
Q 25.484375 -1 18.609375 -1 
Q 14.484375 -1 12.234375 0.84375 
Q 9.984375 2.6875 9.1875 5.828125 
Q 8.40625 8.984375 8.40625 13.5 
L 8.40625 47 
L 0.703125 47 
L 0.703125 49 
Q 2.546875 49.65625 5.390625 51.34375 
Q 8.25 53.046875 11.375 56.65625 
Q 14.5 60.28125 16 65.703125 
L 17.40625 65.703125 
z
" id="Times-116"/>
       <path d="M 19.90625 51.90625 
L 19.90625 42.5 
Q 22.140625 46.296875 25.390625 49.046875 
Q 28.65625 51.8125 32.203125 51.8125 
Q 34.421875 51.8125 36.703125 50.546875 
Q 38.984375 49.296875 38.984375 46.09375 
Q 38.984375 44 37.8125 42.390625 
Q 36.640625 40.796875 34.40625 40.796875 
Q 32.15625 40.796875 30.203125 42.890625 
Q 28.65625 44.609375 26.703125 44.609375 
Q 23.75 44.609375 19.90625 38.5 
L 19.90625 9.796875 
Q 19.90625 7.234375 20.296875 5.546875 
Q 20.703125 3.859375 22.5 2.625 
Q 24.3125 1.390625 28.109375 1.390625 
L 29.390625 1.390625 
L 29.390625 0 
L 2.09375 0 
L 2.09375 1.390625 
L 3.296875 1.390625 
Q 8.234375 1.390625 9.5625 3.640625 
Q 10.890625 5.90625 10.890625 9.796875 
L 10.890625 37.203125 
Q 10.890625 44.796875 6.90625 44.796875 
Q 4.90625 44.796875 3.390625 44.09375 
L 2.90625 45.40625 
z
" id="Times-114"/>
       <path d="M 28.296875 -1 
Q 21.953125 -1 17.203125 1.359375 
Q 12.453125 3.734375 9.40625 7.65625 
Q 6.375 11.59375 4.9375 16.1875 
Q 3.5 20.796875 3.5 25.296875 
Q 3.5 30.5625 5.296875 35.390625 
Q 7.109375 40.234375 10.4375 43.921875 
Q 13.765625 47.625 18.3125 49.71875 
Q 22.875 51.8125 28.296875 51.8125 
Q 35.6875 51.8125 41.328125 48.34375 
Q 46.96875 44.875 50.03125 38.828125 
Q 53.109375 32.78125 53.109375 25.390625 
Q 53.109375 17.390625 49.53125 11.359375 
Q 45.953125 5.34375 40.203125 2.171875 
Q 34.453125 -1 28.296875 -1 
z
M 13.890625 26 
Q 13.890625 20.78125 15.765625 15.375 
Q 17.65625 9.984375 21.34375 6.390625 
Q 25.03125 2.8125 30 2.8125 
Q 42.703125 2.8125 42.703125 26 
Q 42.703125 31.078125 40.703125 36.203125 
Q 38.71875 41.328125 34.953125 44.65625 
Q 31.203125 48 26.296875 48 
Q 19.53125 48 16.703125 41.53125 
Q 13.890625 35.0625 13.890625 26 
z
" id="Times-111"/>
       <path d="M 19.90625 52 
L 19.90625 40.59375 
Q 26.09375 47.53125 29.921875 49.671875 
Q 33.765625 51.8125 37.59375 51.8125 
Q 41.453125 51.8125 44.296875 49.9375 
Q 47.140625 48.078125 48.671875 44.5625 
Q 50.203125 41.0625 50.203125 36.40625 
L 50.203125 9.796875 
Q 50.203125 7.234375 50.578125 5.546875 
Q 50.953125 3.859375 52.609375 2.625 
Q 54.28125 1.390625 57.796875 1.390625 
L 59.015625 1.390625 
L 59.015625 0 
L 33.796875 0 
L 33.796875 1.390625 
L 34.796875 1.390625 
Q 38.96875 1.390625 40.09375 3.671875 
Q 41.21875 5.953125 41.21875 9.796875 
L 41.21875 35.40625 
Q 41.21875 41.578125 38.875 43.375 
Q 36.546875 45.1875 33.203125 45.1875 
Q 26.90625 45.1875 19.90625 37.890625 
L 19.90625 9.796875 
Q 19.90625 5.90625 21.140625 3.640625 
Q 22.390625 1.390625 27 1.390625 
L 28.109375 1.390625 
L 28.109375 0 
L 2.09375 0 
L 2.09375 1.390625 
L 3.203125 1.390625 
Q 8.15625 1.390625 9.515625 3.65625 
Q 10.890625 5.9375 10.890625 9.796875 
L 10.890625 37.203125 
Q 10.890625 44.796875 6.90625 44.796875 
Q 4.90625 44.796875 3.390625 44.09375 
L 2.90625 45.40625 
z
" id="Times-110"/>
       <path d="M 19.90625 52 
L 19.90625 9.796875 
Q 19.90625 5.890625 21.265625 3.640625 
Q 22.640625 1.390625 27.59375 1.390625 
L 28.71875 1.390625 
L 28.71875 0 
L 2.09375 0 
L 2.09375 1.390625 
L 3.203125 1.390625 
Q 8.15625 1.390625 9.515625 3.640625 
Q 10.890625 5.890625 10.890625 9.796875 
L 10.890625 37.203125 
Q 10.890625 44.796875 6.90625 44.796875 
Q 4.78125 44.796875 3.390625 44.09375 
L 2.90625 45.40625 
z
M 9.40625 68.609375 
Q 9.40625 70.90625 11.09375 72.546875 
Q 12.796875 74.1875 14.984375 74.1875 
Q 17.21875 74.1875 18.90625 72.546875 
Q 20.609375 70.90625 20.609375 68.609375 
Q 20.609375 66.375 18.890625 64.671875 
Q 17.171875 62.984375 14.984375 62.984375 
Q 12.703125 62.984375 11.046875 64.6875 
Q 9.40625 66.40625 9.40625 68.609375 
z
" id="Times-105"/>
      </defs>
      <g style="fill:#262626;" transform="translate(53.933299 227.714063)rotate(-90)scale(0.1 -0.1)">
       <use xlink:href="#Times-101"/>
       <use x="48.901367" xlink:href="#Times-108"/>
       <use x="77.612305" xlink:href="#Times-101"/>
       <use x="126.513672" xlink:href="#Times-99"/>
       <use x="176.416016" xlink:href="#Times-116"/>
       <use x="209.619141" xlink:href="#Times-114"/>
       <use x="247.216797" xlink:href="#Times-111"/>
       <use x="303.808594" xlink:href="#Times-110"/>
       <use x="362.817383" xlink:href="#Times-105"/>
       <use x="392.211914" xlink:href="#Times-99"/>
      </g>
     </g>
    </g>
    <g id="xtick_2">
     <g id="line2d_2"/>
     <g id="text_2">
      <!-- soundtrack -->
      <defs>
       <path d="M 33.015625 50.09375 
L 33.296875 35.109375 
L 31.8125 35.109375 
Q 31.46875 39.359375 29.578125 42.359375 
Q 27.6875 45.359375 24.84375 46.875 
Q 22 48.390625 18.890625 48.390625 
Q 15.265625 48.390625 12.734375 46.359375 
Q 10.203125 44.34375 10.203125 40.984375 
Q 10.203125 39.109375 10.953125 37.65625 
Q 11.703125 36.203125 12.953125 35.140625 
Q 14.203125 34.078125 16 33.09375 
Q 17.796875 32.109375 19.796875 31 
Q 25.515625 27.8125 28.875 25.390625 
Q 32.234375 22.96875 34.3125 19.640625 
Q 36.40625 16.3125 36.40625 11.796875 
Q 36.40625 5.78125 31.4375 2.4375 
Q 26.484375 -0.90625 19.90625 -0.90625 
Q 18.015625 -0.90625 12.3125 0.484375 
Q 9.515625 1.296875 8.6875 1.296875 
Q 6.546875 1.296875 5.8125 -0.203125 
L 4.109375 -0.203125 
L 3.8125 17.796875 
L 5.296875 17.796875 
Q 6.109375 12.203125 9.515625 7.296875 
Q 12.9375 2.390625 19.90625 2.390625 
Q 24.53125 2.390625 26.5625 4.640625 
Q 28.59375 6.90625 28.59375 9.5 
Q 28.59375 13.234375 25.9375 15.796875 
Q 23.296875 18.359375 19 20.703125 
Q 12.96875 24.09375 11.375 25.046875 
Q 9.796875 26 7.75 27.859375 
Q 5.71875 29.71875 4.609375 32.15625 
Q 3.5 34.59375 3.5 37.890625 
Q 3.5 41.484375 5.4375 44.671875 
Q 7.375 47.859375 10.84375 49.828125 
Q 14.3125 51.8125 18.5 51.8125 
Q 22.046875 51.8125 23.75 51.3125 
Q 25.46875 50.828125 27.203125 50 
Q 28.953125 49.1875 30.203125 49.1875 
Q 30.734375 49.1875 32.015625 50.09375 
z
" id="Times-115"/>
       <path d="M 48.09375 50.8125 
L 48.09375 13.890625 
Q 48.09375 10.75 48.78125 8.515625 
Q 49.484375 6.296875 52.09375 6.296875 
Q 54.078125 6.296875 55.59375 7 
L 56.109375 5.6875 
L 39.109375 -0.90625 
L 39.109375 10.203125 
Q 35.359375 5.765625 32.28125 3.3125 
Q 29.21875 0.859375 26.65625 -0.0625 
Q 24.09375 -1 21.296875 -1 
Q 8.796875 -1 8.796875 14.40625 
L 8.796875 40.984375 
Q 8.796875 44.921875 7.421875 47.15625 
Q 6.0625 49.390625 1.09375 49.390625 
L 0 49.390625 
L 0 50.8125 
L 17.796875 50.8125 
L 17.796875 15.40625 
Q 17.796875 10.71875 19.28125 8.15625 
Q 20.78125 5.59375 25.8125 5.59375 
Q 29.046875 5.59375 32.59375 7.65625 
Q 36.140625 9.71875 39.109375 12.890625 
L 39.109375 40.984375 
Q 39.109375 45.34375 37.796875 47.359375 
Q 36.5 49.390625 32.109375 49.390625 
L 31 49.390625 
L 31 50.8125 
z
" id="Times-117"/>
       <path d="M 29.71875 68.1875 
L 47.796875 75.609375 
L 47.796875 13.890625 
Q 47.796875 6.296875 51.484375 6.296875 
Q 53.4375 6.296875 55.390625 7.109375 
L 55.8125 5.8125 
L 38.796875 -0.90625 
L 38.796875 6.6875 
Q 34.890625 2.34375 30.5 0.671875 
Q 26.125 -1 22.609375 -1 
Q 17.625 -1 13.21875 2.140625 
Q 8.8125 5.28125 6.15625 11.140625 
Q 3.5 17 3.5 24.609375 
Q 3.5 30.25 5.390625 35.265625 
Q 7.28125 40.28125 10.546875 43.984375 
Q 13.8125 47.6875 18.046875 49.75 
Q 22.296875 51.8125 26.90625 51.8125 
Q 33.46875 51.8125 38.796875 47.90625 
L 38.796875 61.40625 
Q 38.796875 67.890625 34.6875 67.890625 
Q 32.34375 67.890625 30.203125 66.890625 
z
M 38.796875 10.890625 
L 38.796875 37.59375 
Q 38.796875 42.40625 35.25 45.296875 
Q 31.71875 48.1875 27 48.1875 
Q 23.171875 48.1875 20 45.5625 
Q 16.828125 42.9375 14.96875 38.15625 
Q 13.109375 33.375 13.109375 27.203125 
Q 13.109375 22.234375 14.75 17.40625 
Q 16.390625 12.59375 19.84375 9.4375 
Q 23.296875 6.296875 28.390625 6.296875 
Q 34.71875 6.296875 38.796875 10.890625 
z
" id="Times-100"/>
       <path d="M 48.390625 8.109375 
L 49.515625 7 
Q 42.96875 -1 37.5 -1 
Q 34.984375 -1 33.234375 1.359375 
Q 31.5 3.71875 31.5 7.78125 
Q 22.46875 -1 14.203125 -1 
Q 11.03125 -1 8.59375 0.734375 
Q 6.15625 2.484375 4.828125 5.28125 
Q 3.5 8.078125 3.5 11.015625 
Q 3.5 16.625 7.25 20.484375 
Q 11.015625 24.359375 16.53125 26.78125 
Q 22.046875 29.21875 31.5 32.390625 
L 31.5 38.984375 
Q 31.5 43.703125 28.9375 46.25 
Q 26.390625 48.796875 22 48.796875 
Q 18.359375 48.796875 16.234375 46.765625 
Q 14.109375 44.75 14.109375 41.890625 
Q 14.109375 40.875 14.25 40.265625 
Q 14.40625 39.65625 14.40625 38.59375 
Q 14.40625 36.328125 12.96875 35.265625 
Q 11.546875 34.203125 9.796875 34.203125 
Q 7.90625 34.203125 6.75 35.671875 
Q 5.59375 37.140625 5.59375 39.203125 
Q 5.59375 42.921875 8.25 45.8125 
Q 10.921875 48.703125 15.1875 50.25 
Q 19.453125 51.8125 24 51.8125 
Q 40.5 51.8125 40.5 38.5 
L 40.5 8.015625 
Q 40.5 7 41.21875 6.1875 
Q 41.9375 5.390625 43.1875 5.390625 
Q 45.90625 5.390625 48.390625 8.109375 
z
M 31.5 10.40625 
L 31.5 29.296875 
Q 25.046875 26.953125 21.453125 25.34375 
Q 17.875 23.734375 15.03125 20.84375 
Q 12.203125 17.96875 12.203125 13.890625 
Q 12.203125 10.40625 14.171875 7.65625 
Q 16.15625 4.90625 20.515625 4.90625 
Q 21.96875 4.90625 24.8125 6.046875 
Q 27.65625 7.203125 31.5 10.40625 
z
" id="Times-97"/>
       <path d="M 2.203125 69.09375 
L 19.1875 75.609375 
L 19.1875 28.59375 
L 19.703125 28.59375 
L 29.90625 39.40625 
Q 31.125 40.71875 32.921875 42.578125 
Q 34.71875 44.4375 35.25 45.234375 
Q 35.796875 46.046875 35.796875 46.90625 
Q 35.796875 48.46875 34.5 48.875 
Q 33.203125 49.296875 30.59375 49.390625 
L 30.59375 50.8125 
L 51.203125 50.8125 
L 51.203125 49.390625 
Q 44.828125 49.390625 38.59375 42.796875 
L 27.203125 30.90625 
L 44.1875 8.5 
Q 46.390625 5.59375 48.609375 3.734375 
Q 50.828125 1.875 54.59375 1.390625 
L 54.59375 0 
L 32.296875 0 
L 32.296875 1.390625 
L 33.6875 1.390625 
Q 34.515625 1.390625 35.359375 1.875 
Q 36.203125 2.375 36.203125 3.203125 
Q 36.203125 4.6875 35.109375 6.203125 
L 19.703125 27 
L 19.1875 27 
L 19.1875 9.796875 
Q 19.1875 7.28125 19.484375 5.578125 
Q 19.78125 3.875 21.0625 2.625 
Q 22.34375 1.390625 25 1.390625 
L 25.90625 1.390625 
L 25.90625 0 
L 1.390625 0 
L 1.390625 1.390625 
L 2.484375 1.390625 
Q 7.46875 1.390625 8.828125 3.640625 
Q 10.203125 5.890625 10.203125 9.796875 
L 10.203125 60.796875 
Q 10.203125 68.40625 6.203125 68.40625 
Q 4.296875 68.40625 2.71875 67.703125 
z
" id="Times-107"/>
      </defs>
      <g style="fill:#262626;" transform="translate(64.910348 232.584375)rotate(-90)scale(0.1 -0.1)">
       <use xlink:href="#Times-115"/>
       <use x="38.500977" xlink:href="#Times-111"/>
       <use x="95.092773" xlink:href="#Times-117"/>
       <use x="151.904297" xlink:href="#Times-110"/>
       <use x="210.913086" xlink:href="#Times-100"/>
       <use x="267.407227" xlink:href="#Times-116"/>
       <use x="300.610352" xlink:href="#Times-114"/>
       <use x="338.208008" xlink:href="#Times-97"/>
       <use x="387.719727" xlink:href="#Times-99"/>
       <use x="437.62207" xlink:href="#Times-107"/>
      </g>
     </g>
    </g>
    <g id="xtick_3">
     <g id="line2d_3"/>
     <g id="text_3">
      <!-- pop -->
      <defs>
       <path d="M 17.796875 52 
L 17.796875 42.09375 
Q 21.796875 47 25.5625 49.40625 
Q 29.34375 51.8125 34.203125 51.8125 
Q 42.046875 51.8125 47.421875 45.09375 
Q 52.8125 38.375 52.8125 26.296875 
Q 52.8125 18.890625 49.53125 12.59375 
Q 46.265625 6.296875 40.84375 2.640625 
Q 35.421875 -1 29.390625 -1 
Q 23.125 -1 17.796875 2.703125 
L 17.796875 -9.109375 
Q 17.796875 -13.09375 19.203125 -15.296875 
Q 20.609375 -17.5 26 -17.5 
L 28 -17.5 
L 28 -18.890625 
L 0 -18.890625 
L 0 -17.5 
L 1.09375 -17.5 
Q 6.0625 -17.5 7.421875 -15.25 
Q 8.796875 -13.015625 8.796875 -9.109375 
L 8.796875 37.203125 
Q 8.796875 40.828125 7.984375 42.8125 
Q 7.171875 44.796875 4.8125 44.796875 
Q 2.8125 44.796875 1.296875 44.09375 
L 0.8125 45.40625 
z
M 17.796875 37.796875 
L 17.796875 13.203125 
Q 17.796875 7.8125 21.515625 5.203125 
Q 25.25 2.59375 29.390625 2.59375 
Q 32.890625 2.59375 36 4.984375 
Q 39.109375 7.375 41 12.0625 
Q 42.890625 16.765625 42.890625 23.09375 
Q 42.890625 28.71875 41.703125 32.84375 
Q 40.53125 36.984375 38.484375 39.53125 
Q 36.453125 42.09375 33.796875 43.296875 
Q 31.15625 44.5 28.109375 44.5 
Q 25.3125 44.5 22.59375 42.6875 
Q 19.875 40.875 17.796875 37.796875 
z
" id="Times-112"/>
      </defs>
      <g style="fill:#262626;" transform="translate(75.887398 200.41875)rotate(-90)scale(0.1 -0.1)">
       <use xlink:href="#Times-112"/>
       <use x="56.298828" xlink:href="#Times-111"/>
       <use x="112.890625" xlink:href="#Times-112"/>
      </g>
     </g>
    </g>
    <g id="xtick_4">
     <g id="line2d_4"/>
     <g id="text_4">
      <!-- ambient -->
      <defs>
       <path d="M 19.90625 52 
L 19.90625 42 
Q 23.6875 45.453125 26.4375 47.53125 
Q 29.203125 49.609375 31.78125 50.703125 
Q 34.375 51.8125 37.109375 51.8125 
Q 41.703125 51.8125 45.203125 49.140625 
Q 48.703125 46.484375 49.390625 41.21875 
Q 54.984375 46.75 58.71875 49.28125 
Q 62.453125 51.8125 66.21875 51.8125 
Q 72.21875 51.8125 75.265625 48.96875 
Q 78.328125 46.125 79.109375 42.71875 
Q 79.90625 39.328125 79.90625 36.109375 
L 79.90625 9.796875 
Q 79.90625 5.890625 81.265625 3.640625 
Q 82.640625 1.390625 87.59375 1.390625 
L 88.703125 1.390625 
L 88.703125 0 
L 63.40625 0 
L 63.40625 1.390625 
L 64.40625 1.390625 
Q 68.65625 1.390625 69.78125 3.671875 
Q 70.90625 5.953125 70.90625 9.796875 
L 70.90625 35.796875 
Q 70.90625 40.765625 68.96875 42.96875 
Q 67.046875 45.1875 62.796875 45.1875 
Q 59.84375 45.1875 56.21875 43.09375 
Q 52.609375 41.015625 49.90625 38.3125 
L 49.90625 9.796875 
Q 49.90625 5.953125 51.03125 3.671875 
Q 52.171875 1.390625 56.390625 1.390625 
L 57.40625 1.390625 
L 57.40625 0 
L 33.5 0 
L 33.5 1.390625 
L 34.40625 1.390625 
Q 38.65625 1.390625 39.765625 3.671875 
Q 40.890625 5.953125 40.890625 9.796875 
L 40.890625 35.890625 
Q 40.890625 45.1875 32.5 45.1875 
Q 29.546875 45.1875 26.109375 43.1875 
Q 22.6875 41.1875 19.90625 38.40625 
L 19.90625 9.796875 
Q 19.90625 5.5625 21.234375 3.46875 
Q 22.5625 1.390625 26.90625 1.390625 
L 28 1.390625 
L 28 0 
L 2.09375 0 
L 2.09375 1.390625 
L 3.203125 1.390625 
Q 8.15625 1.390625 9.515625 3.640625 
Q 10.890625 5.890625 10.890625 9.796875 
L 10.890625 37.203125 
Q 10.890625 40.828125 10.078125 42.8125 
Q 9.28125 44.796875 6.90625 44.796875 
Q 4.90625 44.796875 3.390625 44.09375 
L 2.90625 45.40625 
z
" id="Times-109"/>
       <path d="M -1.390625 69.09375 
L 15.609375 75.609375 
L 15.609375 41.796875 
Q 22 51.8125 30.8125 51.8125 
Q 36.46875 51.8125 40.953125 48.515625 
Q 45.4375 45.234375 47.90625 39.578125 
Q 50.390625 33.9375 50.390625 27.09375 
Q 50.390625 18.75 46.71875 12.296875 
Q 43.046875 5.859375 37.0625 2.375 
Q 31.078125 -1.09375 24.515625 -1.09375 
Q 15.75 -1.09375 6.59375 5.90625 
L 6.59375 60.796875 
Q 6.59375 68.40625 2.59375 68.40625 
Q 0.6875 68.40625 -0.90625 67.703125 
z
M 15.609375 37.3125 
L 15.609375 8.90625 
Q 17.40625 6.078125 20.5 4.390625 
Q 23.609375 2.703125 26.703125 2.703125 
Q 30.984375 2.703125 34.34375 5.765625 
Q 37.703125 8.84375 39.546875 13.8125 
Q 41.40625 18.796875 41.40625 24.296875 
Q 41.40625 30.34375 39.40625 34.84375 
Q 37.40625 39.359375 34.046875 41.71875 
Q 30.6875 44.09375 26.8125 44.09375 
Q 23.34375 44.09375 20.375 42.15625 
Q 17.40625 40.234375 15.609375 37.3125 
z
" id="Times-98"/>
      </defs>
      <g style="fill:#262626;" transform="translate(86.864447 219.764063)rotate(-90)scale(0.1 -0.1)">
       <use xlink:href="#Times-97"/>
       <use x="49.511719" xlink:href="#Times-109"/>
       <use x="138.208008" xlink:href="#Times-98"/>
       <use x="192.114258" xlink:href="#Times-105"/>
       <use x="221.508789" xlink:href="#Times-101"/>
       <use x="270.410156" xlink:href="#Times-110"/>
       <use x="329.418945" xlink:href="#Times-116"/>
      </g>
     </g>
    </g>
    <g id="xtick_5">
     <g id="line2d_5"/>
     <g id="text_5">
      <!-- rock -->
      <g style="fill:#262626;" transform="translate(97.841496 203.229688)rotate(-90)scale(0.1 -0.1)">
       <use xlink:href="#Times-114"/>
       <use x="37.597656" xlink:href="#Times-111"/>
       <use x="94.189453" xlink:href="#Times-99"/>
       <use x="144.091797" xlink:href="#Times-107"/>
      </g>
     </g>
    </g>
    <g id="xtick_6">
     <g id="line2d_6"/>
     <g id="text_6">
      <!-- classical -->
      <g style="fill:#262626;" transform="translate(108.818545 219.767188)rotate(-90)scale(0.1 -0.1)">
       <use xlink:href="#Times-99"/>
       <use x="49.902344" xlink:href="#Times-108"/>
       <use x="78.613281" xlink:href="#Times-97"/>
       <use x="128.125" xlink:href="#Times-115"/>
       <use x="166.625977" xlink:href="#Times-115"/>
       <use x="205.126953" xlink:href="#Times-105"/>
       <use x="234.521484" xlink:href="#Times-99"/>
       <use x="284.423828" xlink:href="#Times-97"/>
       <use x="333.935547" xlink:href="#Times-108"/>
      </g>
     </g>
    </g>
    <g id="xtick_7">
     <g id="line2d_7"/>
     <g id="text_7">
      <!-- easylistening -->
      <defs>
       <path d="M -0.390625 50.8125 
L 22.09375 50.8125 
L 22.09375 49.390625 
Q 16.3125 49.390625 16.3125 45.703125 
Q 16.3125 44.703125 16.890625 43.1875 
L 29.296875 12.40625 
L 39.203125 39.984375 
Q 40.21875 43.109375 40.21875 45.40625 
Q 40.21875 47.46875 38.546875 48.421875 
Q 36.890625 49.390625 35.5 49.390625 
L 34.015625 49.390625 
L 34.015625 50.8125 
L 51.703125 50.8125 
L 51.703125 49.390625 
Q 48.609375 49.1875 47.015625 47.046875 
Q 45.4375 44.921875 44.1875 41.609375 
L 27.59375 -3.09375 
Q 24.8125 -10.6875 20.828125 -14.890625 
Q 16.84375 -19.09375 10.796875 -19.09375 
Q 7.515625 -19.09375 5.703125 -17.5 
Q 3.90625 -15.921875 3.90625 -13.703125 
Q 3.90625 -11.671875 5.5625 -10.125 
Q 7.234375 -8.59375 9.6875 -8.59375 
Q 11.25 -8.59375 13.5 -9.59375 
Q 15.65625 -10.59375 17.09375 -10.59375 
Q 19.78125 -10.59375 21.625 -7.59375 
Q 23.484375 -4.59375 25.09375 -0.09375 
L 6.90625 43.1875 
Q 6.0625 45.390625 4.1875 47.390625 
Q 2.328125 49.390625 -0.390625 49.390625 
z
" id="Times-121"/>
       <path d="M 34.296875 47.796875 
L 46.703125 48.09375 
L 46.296875 43.609375 
L 37.796875 43.609375 
Q 40.890625 39.359375 40.890625 35.203125 
Q 40.890625 28.484375 36.359375 23.546875 
Q 31.84375 18.609375 23 18.609375 
Q 18.78125 18.609375 15.796875 19.609375 
Q 12.015625 16.75 12.015625 14.109375 
Q 12.015625 11.40625 21.90625 11.40625 
L 26.09375 11.40625 
Q 32.953125 11.359375 37.421875 10.5 
Q 41.890625 9.640625 44.4375 6.921875 
Q 47 4.21875 47 -1.09375 
Q 47 -4.984375 44.859375 -8.328125 
Q 42.71875 -11.6875 39.0625 -14.078125 
Q 35.421875 -16.484375 30.75 -17.78125 
Q 26.09375 -19.09375 21.1875 -19.09375 
Q 13.625 -19.09375 8.875 -17.34375 
Q 4.125 -15.59375 2.203125 -13.15625 
Q 0.296875 -10.71875 0.296875 -8.40625 
Q 0.296875 -6.8125 1.28125 -5.03125 
Q 2.265625 -3.265625 3.78125 -1.640625 
Q 5.296875 -0.03125 7.234375 1.671875 
Q 9.1875 3.375 10.015625 4.109375 
Q 7.5 4.78125 6.203125 6.546875 
Q 4.90625 8.328125 4.90625 10.015625 
Q 4.90625 14.5 12.890625 20.796875 
Q 8.671875 22.78125 6.484375 26.46875 
Q 4.296875 30.15625 4.296875 34.5 
Q 4.296875 38.84375 6.015625 42.09375 
Q 7.734375 45.359375 10.515625 47.4375 
Q 13.3125 49.515625 16.484375 50.5 
Q 19.671875 51.484375 22.609375 51.484375 
Q 28.953125 51.484375 34.296875 47.796875 
z
M 12.890625 3.390625 
Q 8.59375 -1.25 8.59375 -5 
Q 8.59375 -8.421875 12.9375 -10.265625 
Q 17.28125 -12.109375 23.8125 -12.109375 
Q 32.125 -12.109375 36.609375 -10.25 
Q 41.09375 -8.40625 42.390625 -6.3125 
Q 43.703125 -4.21875 43.703125 -2.90625 
Q 43.703125 -0.46875 42.59375 0.703125 
Q 41.5 1.875 38.453125 2.328125 
Q 35.40625 2.78125 28.90625 2.90625 
Q 20.53125 2.90625 12.890625 3.390625 
z
M 23.609375 21.703125 
Q 31.6875 21.703125 31.6875 31.5 
Q 31.6875 36.6875 30.234375 40.515625 
Q 28.78125 44.34375 26.328125 46.359375 
Q 23.875 48.390625 21 48.390625 
Q 18.0625 48.390625 15.578125 46.1875 
Q 13.109375 44 13.109375 38.796875 
Q 13.109375 32.8125 15.75 27.359375 
Q 18.40625 21.90625 23.609375 21.703125 
z
" id="Times-103"/>
      </defs>
      <g style="fill:#262626;" transform="translate(119.785438 239.745313)rotate(-90)scale(0.1 -0.1)">
       <use xlink:href="#Times-101"/>
       <use x="48.901367" xlink:href="#Times-97"/>
       <use x="98.413086" xlink:href="#Times-115"/>
       <use x="136.914062" xlink:href="#Times-121"/>
       <use x="187.207031" xlink:href="#Times-108"/>
       <use x="215.917969" xlink:href="#Times-105"/>
       <use x="245.3125" xlink:href="#Times-115"/>
       <use x="283.813477" xlink:href="#Times-116"/>
       <use x="317.016602" xlink:href="#Times-101"/>
       <use x="365.917969" xlink:href="#Times-110"/>
       <use x="424.926758" xlink:href="#Times-105"/>
       <use x="454.321289" xlink:href="#Times-110"/>
       <use x="513.330078" xlink:href="#Times-103"/>
      </g>
     </g>
    </g>
    <g id="xtick_8">
     <g id="line2d_8"/>
     <g id="text_8">
      <!-- experimental -->
      <defs>
       <path d="M 0.703125 50.8125 
L 23.1875 50.8125 
L 23.1875 49.390625 
L 22.40625 49.390625 
Q 20.390625 49.390625 19.546875 48.546875 
Q 18.703125 47.703125 18.703125 46.796875 
Q 18.703125 45.53125 19.609375 44 
L 27.296875 31.296875 
L 35.796875 44 
Q 36.796875 45.40625 36.796875 46.796875 
Q 36.796875 49.390625 33.109375 49.390625 
L 31.90625 49.390625 
L 31.90625 50.8125 
L 48.1875 50.8125 
L 48.1875 49.390625 
Q 43.671875 49.078125 40.3125 44 
L 29.71875 28.296875 
L 41.796875 8.109375 
Q 45.234375 2.484375 50.703125 1.390625 
L 50.703125 0 
L 28 0 
L 28 1.390625 
Q 30.46875 1.640625 31.6875 2.171875 
Q 32.90625 2.703125 32.90625 4.296875 
Q 32.90625 5.34375 31.8125 6.90625 
L 22.90625 21.609375 
L 13.40625 7.59375 
Q 11.890625 5.671875 11.890625 4.296875 
Q 11.890625 3.125 12.828125 2.25 
Q 13.765625 1.390625 15.609375 1.390625 
L 16.796875 1.390625 
L 16.796875 0 
L 0 0 
L 0 1.390625 
Q 3.125 1.90625 5.234375 3.578125 
Q 7.34375 5.25 9.40625 8.296875 
L 20.703125 24.8125 
L 9.203125 43.609375 
Q 5.671875 49.390625 1.703125 49.390625 
L 0.703125 49.390625 
z
" id="Times-120"/>
      </defs>
      <g style="fill:#262626;" transform="translate(130.772643 241.415625)rotate(-90)scale(0.1 -0.1)">
       <use xlink:href="#Times-101"/>
       <use x="48.901367" xlink:href="#Times-120"/>
       <use x="98.901367" xlink:href="#Times-112"/>
       <use x="155.200195" xlink:href="#Times-101"/>
       <use x="204.101562" xlink:href="#Times-114"/>
       <use x="241.699219" xlink:href="#Times-105"/>
       <use x="271.09375" xlink:href="#Times-109"/>
       <use x="359.790039" xlink:href="#Times-101"/>
       <use x="408.691406" xlink:href="#Times-110"/>
       <use x="467.700195" xlink:href="#Times-116"/>
       <use x="500.90332" xlink:href="#Times-97"/>
       <use x="550.415039" xlink:href="#Times-108"/>
      </g>
     </g>
    </g>
    <g id="xtick_9">
     <g id="line2d_9"/>
     <g id="text_9">
      <!-- alternative -->
      <defs>
       <path d="M 24.203125 -1 
L 6.6875 42.890625 
Q 4.171875 49.1875 -1.390625 49.296875 
L -1.390625 50.8125 
L 20.796875 50.8125 
L 20.796875 49.296875 
Q 17.71875 49.03125 16.5625 48.40625 
Q 15.40625 47.78125 15.40625 45.609375 
Q 15.40625 44.703125 16 42.890625 
L 27.09375 15.09375 
L 38.109375 43.40625 
Q 38.796875 45.1875 38.796875 46.515625 
Q 38.796875 49.296875 35.109375 49.296875 
L 34.015625 49.296875 
L 34.015625 50.8125 
L 48.609375 50.8125 
L 48.609375 49.296875 
Q 46.09375 48.953125 44.953125 47.6875 
Q 43.828125 46.4375 42.703125 43.5 
L 25.296875 -1 
z
" id="Times-118"/>
      </defs>
      <g style="fill:#262626;" transform="translate(141.749693 230.157813)rotate(-90)scale(0.1 -0.1)">
       <use xlink:href="#Times-97"/>
       <use x="49.511719" xlink:href="#Times-108"/>
       <use x="78.222656" xlink:href="#Times-116"/>
       <use x="111.425781" xlink:href="#Times-101"/>
       <use x="160.327148" xlink:href="#Times-114"/>
       <use x="197.924805" xlink:href="#Times-110"/>
       <use x="256.933594" xlink:href="#Times-97"/>
       <use x="306.445312" xlink:href="#Times-116"/>
       <use x="339.648438" xlink:href="#Times-105"/>
       <use x="369.042969" xlink:href="#Times-118"/>
       <use x="417.651367" xlink:href="#Times-101"/>
      </g>
     </g>
    </g>
    <g id="xtick_10">
     <g id="line2d_10"/>
     <g id="text_10">
      <!-- chillout -->
      <defs>
       <path d="M 2.203125 69.09375 
L 19.1875 75.609375 
L 19.1875 40.59375 
Q 25.390625 47.53125 29.21875 49.671875 
Q 33.0625 51.8125 36.890625 51.8125 
Q 42.328125 51.8125 45.921875 48.015625 
Q 49.515625 44.21875 49.515625 37.109375 
L 49.515625 9.796875 
Q 49.515625 5.890625 50.875 3.640625 
Q 52.25 1.390625 57.203125 1.390625 
L 58.296875 1.390625 
L 58.296875 0 
L 33.109375 0 
L 33.109375 1.390625 
L 34.109375 1.390625 
Q 38.28125 1.390625 39.390625 3.671875 
Q 40.5 5.953125 40.5 9.796875 
L 40.5 35.40625 
Q 40.5 45.1875 32.5 45.1875 
Q 26.375 45.1875 19.1875 37.890625 
L 19.1875 9.796875 
Q 19.1875 5.953125 20.3125 3.671875 
Q 21.4375 1.390625 25.609375 1.390625 
L 26.609375 1.390625 
L 26.609375 0 
L 1.390625 0 
L 1.390625 1.390625 
L 2.484375 1.390625 
Q 7.46875 1.390625 8.828125 3.640625 
Q 10.203125 5.890625 10.203125 9.796875 
L 10.203125 60.796875 
Q 10.203125 68.40625 6.203125 68.40625 
Q 4.296875 68.40625 2.71875 67.703125 
z
" id="Times-104"/>
      </defs>
      <g style="fill:#262626;" transform="translate(152.726742 217.664062)rotate(-90)scale(0.1 -0.1)">
       <use xlink:href="#Times-99"/>
       <use x="49.902344" xlink:href="#Times-104"/>
       <use x="108.203125" xlink:href="#Times-105"/>
       <use x="137.597656" xlink:href="#Times-108"/>
       <use x="166.308594" xlink:href="#Times-108"/>
       <use x="195.019531" xlink:href="#Times-111"/>
       <use x="251.611328" xlink:href="#Times-117"/>
       <use x="308.422852" xlink:href="#Times-116"/>
      </g>
     </g>
    </g>
    <g id="xtick_11">
     <g id="line2d_11"/>
     <g id="text_11">
      <!-- dance -->
      <g style="fill:#262626;" transform="translate(163.703791 209.884375)rotate(-90)scale(0.1 -0.1)">
       <use xlink:href="#Times-100"/>
       <use x="56.494141" xlink:href="#Times-97"/>
       <use x="106.005859" xlink:href="#Times-110"/>
       <use x="165.014648" xlink:href="#Times-99"/>
       <use x="214.916992" xlink:href="#Times-101"/>
      </g>
     </g>
    </g>
    <g id="xtick_12">
     <g id="line2d_12"/>
     <g id="text_12">
      <!-- hiphop -->
      <g style="fill:#262626;" transform="translate(174.68084 215.017188)rotate(-90)scale(0.1 -0.1)">
       <use xlink:href="#Times-104"/>
       <use x="58.300781" xlink:href="#Times-105"/>
       <use x="87.695312" xlink:href="#Times-112"/>
       <use x="143.994141" xlink:href="#Times-104"/>
       <use x="202.294922" xlink:href="#Times-111"/>
       <use x="258.886719" xlink:href="#Times-112"/>
      </g>
     </g>
    </g>
    <g id="xtick_13">
     <g id="line2d_13"/>
     <g id="text_13">
      <!-- indie -->
      <g style="fill:#262626;" transform="translate(185.657889 205.820312)rotate(-90)scale(0.1 -0.1)">
       <use xlink:href="#Times-105"/>
       <use x="29.394531" xlink:href="#Times-110"/>
       <use x="88.40332" xlink:href="#Times-100"/>
       <use x="144.897461" xlink:href="#Times-105"/>
       <use x="174.291992" xlink:href="#Times-101"/>
      </g>
     </g>
    </g>
    <g id="xtick_14">
     <g id="line2d_14"/>
     <g id="text_14">
      <!-- folk -->
      <defs>
       <path d="M 10.890625 47 
L 2.90625 47 
L 2.90625 50.8125 
L 10.890625 50.8125 
L 10.890625 54.296875 
Q 10.890625 59.84375 13.078125 64.71875 
Q 15.265625 69.609375 19.46875 72.609375 
Q 23.6875 75.609375 29.390625 75.609375 
Q 32.296875 75.609375 35.546875 74.65625 
Q 38.8125 73.703125 41.109375 71.765625 
Q 43.40625 69.828125 43.40625 67 
Q 43.40625 65.0625 42.1875 63.96875 
Q 40.96875 62.890625 39.3125 62.890625 
Q 37.140625 62.890625 36.046875 63.921875 
Q 34.96875 64.96875 33.203125 67.5 
Q 31.984375 69.40625 30.53125 70.5 
Q 29.078125 71.609375 26.484375 71.609375 
Q 23.65625 71.609375 22.21875 70.125 
Q 20.796875 68.65625 20.3125 65.9375 
Q 19.84375 63.234375 19.796875 58.6875 
Q 19.796875 57.5625 19.84375 54.953125 
Q 19.90625 52.34375 19.90625 50.8125 
L 30.109375 50.8125 
L 30.109375 47 
L 19.90625 47 
L 19.90625 9.796875 
Q 19.90625 5.828125 21.34375 3.609375 
Q 22.796875 1.390625 28.109375 1.390625 
L 29.390625 1.390625 
L 29.390625 0 
L 2.09375 0 
L 2.09375 1.390625 
L 3.203125 1.390625 
Q 8.15625 1.390625 9.515625 3.640625 
Q 10.890625 5.890625 10.890625 9.796875 
z
" id="Times-102"/>
      </defs>
      <g style="fill:#262626;" transform="translate(196.634939 200.571875)rotate(-90)scale(0.1 -0.1)">
       <use xlink:href="#Times-102"/>
       <use x="32.202148" xlink:href="#Times-111"/>
       <use x="88.793945" xlink:href="#Times-108"/>
       <use x="117.504883" xlink:href="#Times-107"/>
      </g>
     </g>
    </g>
    <g id="xtick_15">
     <g id="line2d_15"/>
     <g id="text_15">
      <!-- orchestral -->
      <g style="fill:#262626;" transform="translate(207.611988 227.382812)rotate(-90)scale(0.1 -0.1)">
       <use xlink:href="#Times-111"/>
       <use x="56.591797" xlink:href="#Times-114"/>
       <use x="94.189453" xlink:href="#Times-99"/>
       <use x="144.091797" xlink:href="#Times-104"/>
       <use x="202.392578" xlink:href="#Times-101"/>
       <use x="251.293945" xlink:href="#Times-115"/>
       <use x="289.794922" xlink:href="#Times-116"/>
       <use x="322.998047" xlink:href="#Times-114"/>
       <use x="360.595703" xlink:href="#Times-97"/>
       <use x="410.107422" xlink:href="#Times-108"/>
      </g>
     </g>
    </g>
    <g id="xtick_16">
     <g id="line2d_16"/>
     <g id="text_16">
      <!-- jazz -->
      <defs>
       <path d="M 18.703125 52 
L 18.703125 4.203125 
Q 18.703125 0.265625 17.578125 -4.8125 
Q 16.453125 -9.90625 12.078125 -14.453125 
Q 7.71875 -19 -0.8125 -19 
Q -5.21875 -19 -7.15625 -17.265625 
Q -9.109375 -15.546875 -9.109375 -13.40625 
Q -9.109375 -11.921875 -8.09375 -10.75 
Q -7.078125 -9.59375 -4.90625 -9.59375 
Q -3.15625 -9.59375 -2.15625 -10.203125 
Q -1.15625 -10.8125 0.09375 -12.109375 
Q 2.875 -14.890625 5.203125 -14.890625 
Q 7.953125 -14.890625 8.8125 -11.328125 
Q 9.6875 -7.78125 9.6875 -1.609375 
L 9.6875 2.90625 
L 9.6875 37.203125 
Q 9.6875 44.796875 5.8125 44.796875 
Q 3.8125 44.796875 2.296875 44.09375 
L 1.8125 45.40625 
z
M 8.203125 68.609375 
Q 8.203125 70.96875 9.9375 72.578125 
Q 11.671875 74.1875 13.796875 74.1875 
Q 15.046875 74.1875 16.375 73.53125 
Q 17.703125 72.875 18.546875 71.609375 
Q 19.40625 70.34375 19.40625 68.609375 
Q 19.40625 66.0625 17.609375 64.515625 
Q 15.828125 62.984375 13.796875 62.984375 
Q 11.578125 62.984375 9.890625 64.703125 
Q 8.203125 66.4375 8.203125 68.609375 
z
" id="Times-106"/>
       <path d="M 5.6875 36.890625 
L 6.203125 50.8125 
L 45.515625 50.8125 
L 14.40625 3.8125 
L 32.5 3.8125 
Q 38.578125 3.8125 40.9375 6.546875 
Q 43.3125 9.296875 43.3125 15.40625 
L 44.703125 15.40625 
L 44.703125 0 
L 1.390625 0 
L 32.5 47 
L 14.703125 47 
Q 11.328125 47 9.5625 45.265625 
Q 7.796875 43.53125 7.109375 36.890625 
z
" id="Times-122"/>
      </defs>
      <g style="fill:#262626;" transform="translate(218.578099 200.54375)rotate(-90)scale(0.1 -0.1)">
       <use xlink:href="#Times-106"/>
       <use x="25.708008" xlink:href="#Times-97"/>
       <use x="75.219727" xlink:href="#Times-122"/>
       <use x="122.827148" xlink:href="#Times-122"/>
      </g>
     </g>
    </g>
    <g id="xtick_17">
     <g id="line2d_17"/>
     <g id="text_17">
      <!-- lounge -->
      <g style="fill:#262626;" transform="translate(229.55593 213.414062)rotate(-90)scale(0.1 -0.1)">
       <use xlink:href="#Times-108"/>
       <use x="28.710938" xlink:href="#Times-111"/>
       <use x="85.302734" xlink:href="#Times-117"/>
       <use x="142.114258" xlink:href="#Times-110"/>
       <use x="201.123047" xlink:href="#Times-103"/>
       <use x="250.219727" xlink:href="#Times-101"/>
      </g>
     </g>
    </g>
    <g id="xtick_18">
     <g id="line2d_18"/>
     <g id="text_18">
      <!-- newage -->
      <defs>
       <path d="M 22.703125 -1 
L 6.296875 42.3125 
Q 3.734375 49.1875 -1.390625 49.296875 
L -1.390625 50.8125 
L 19.609375 50.8125 
L 19.609375 49.296875 
Q 17.046875 49.09375 15.96875 48.5 
Q 14.890625 47.921875 14.890625 45.796875 
Q 14.890625 44.265625 15.796875 41.796875 
L 25.609375 15.09375 
L 35.109375 36.59375 
L 32.6875 42.890625 
Q 30.375 49.125 25.09375 49.296875 
L 25.09375 50.8125 
L 46.703125 50.8125 
L 46.703125 49.296875 
L 45.609375 49.296875 
Q 43.75 49.296875 42.578125 48.34375 
Q 41.40625 47.390625 41.40625 45.703125 
Q 41.40625 44.625 42.21875 42.3125 
L 52.203125 15.09375 
L 62.015625 42.40625 
Q 62.890625 45.09375 62.890625 46.609375 
Q 62.890625 49.296875 59.5 49.296875 
L 58.296875 49.296875 
L 58.296875 50.8125 
L 72.90625 50.8125 
L 72.90625 49.296875 
Q 70.125 48.734375 69.046875 47.171875 
Q 67.96875 45.625 66.703125 42.40625 
L 50.484375 -1 
L 49.296875 -1 
L 37.203125 31.109375 
L 23.90625 -1 
z
" id="Times-119"/>
      </defs>
      <g style="fill:#262626;" transform="translate(240.522823 216.334375)rotate(-90)scale(0.1 -0.1)">
       <use xlink:href="#Times-110"/>
       <use x="59.008789" xlink:href="#Times-101"/>
       <use x="107.910156" xlink:href="#Times-119"/>
       <use x="180.810547" xlink:href="#Times-97"/>
       <use x="230.322266" xlink:href="#Times-103"/>
       <use x="279.418945" xlink:href="#Times-101"/>
      </g>
     </g>
    </g>
    <g id="xtick_19">
     <g id="line2d_19"/>
     <g id="text_19">
      <!-- techno -->
      <g style="fill:#262626;" transform="translate(251.520184 214.092188)rotate(-90)scale(0.1 -0.1)">
       <use xlink:href="#Times-116"/>
       <use x="33.203125" xlink:href="#Times-101"/>
       <use x="82.104492" xlink:href="#Times-99"/>
       <use x="132.006836" xlink:href="#Times-104"/>
       <use x="190.307617" xlink:href="#Times-110"/>
       <use x="249.316406" xlink:href="#Times-111"/>
      </g>
     </g>
    </g>
    <g id="xtick_20">
     <g id="line2d_20"/>
     <g id="text_20">
      <!-- poprock -->
      <g style="fill:#262626;" transform="translate(262.497234 220.148438)rotate(-90)scale(0.1 -0.1)">
       <use xlink:href="#Times-112"/>
       <use x="56.298828" xlink:href="#Times-111"/>
       <use x="112.890625" xlink:href="#Times-112"/>
       <use x="169.189453" xlink:href="#Times-114"/>
       <use x="206.787109" xlink:href="#Times-111"/>
       <use x="263.378906" xlink:href="#Times-99"/>
       <use x="313.28125" xlink:href="#Times-107"/>
      </g>
     </g>
    </g>
    <g id="xtick_21">
     <g id="line2d_21"/>
     <g id="text_21">
      <!-- piano -->
      <g style="fill:#262626;" transform="translate(273.474283 208.58125)rotate(-90)scale(0.1 -0.1)">
       <use xlink:href="#Times-112"/>
       <use x="56.298828" xlink:href="#Times-105"/>
       <use x="85.693359" xlink:href="#Times-97"/>
       <use x="135.205078" xlink:href="#Times-110"/>
       <use x="194.213867" xlink:href="#Times-111"/>
      </g>
     </g>
    </g>
    <g id="xtick_22">
     <g id="line2d_22"/>
     <g id="text_22">
      <!-- synthesizer -->
      <g style="fill:#262626;" transform="translate(284.441176 232.521875)rotate(-90)scale(0.1 -0.1)">
       <use xlink:href="#Times-115"/>
       <use x="38.500977" xlink:href="#Times-121"/>
       <use x="88.793945" xlink:href="#Times-110"/>
       <use x="147.802734" xlink:href="#Times-116"/>
       <use x="181.005859" xlink:href="#Times-104"/>
       <use x="239.306641" xlink:href="#Times-101"/>
       <use x="288.208008" xlink:href="#Times-115"/>
       <use x="326.708984" xlink:href="#Times-105"/>
       <use x="356.103516" xlink:href="#Times-122"/>
       <use x="403.710938" xlink:href="#Times-101"/>
       <use x="452.612305" xlink:href="#Times-114"/>
      </g>
     </g>
    </g>
    <g id="xtick_23">
     <g id="line2d_23"/>
     <g id="text_23">
      <!-- drums -->
      <g style="fill:#262626;" transform="translate(295.428381 211.310938)rotate(-90)scale(0.1 -0.1)">
       <use xlink:href="#Times-100"/>
       <use x="56.494141" xlink:href="#Times-114"/>
       <use x="94.091797" xlink:href="#Times-117"/>
       <use x="150.90332" xlink:href="#Times-109"/>
       <use x="239.599609" xlink:href="#Times-115"/>
      </g>
     </g>
    </g>
    <g id="xtick_24">
     <g id="line2d_24"/>
     <g id="text_24">
      <!-- bass -->
      <g style="fill:#262626;" transform="translate(306.40543 201.542188)rotate(-90)scale(0.1 -0.1)">
       <use xlink:href="#Times-98"/>
       <use x="53.90625" xlink:href="#Times-97"/>
       <use x="103.417969" xlink:href="#Times-115"/>
       <use x="141.918945" xlink:href="#Times-115"/>
      </g>
     </g>
    </g>
    <g id="xtick_25">
     <g id="line2d_25"/>
     <g id="text_25">
      <!-- guitar -->
      <g style="fill:#262626;" transform="translate(317.362167 209.060938)rotate(-90)scale(0.1 -0.1)">
       <use xlink:href="#Times-103"/>
       <use x="49.09668" xlink:href="#Times-117"/>
       <use x="105.908203" xlink:href="#Times-105"/>
       <use x="135.302734" xlink:href="#Times-116"/>
       <use x="168.505859" xlink:href="#Times-97"/>
       <use x="218.017578" xlink:href="#Times-114"/>
      </g>
     </g>
    </g>
    <g id="xtick_26">
     <g id="line2d_26"/>
     <g id="text_26">
      <!-- electricguitar -->
      <g style="fill:#262626;" transform="translate(328.349372 241.714063)rotate(-90)scale(0.1 -0.1)">
       <use xlink:href="#Times-101"/>
       <use x="48.901367" xlink:href="#Times-108"/>
       <use x="77.612305" xlink:href="#Times-101"/>
       <use x="126.513672" xlink:href="#Times-99"/>
       <use x="176.416016" xlink:href="#Times-116"/>
       <use x="209.619141" xlink:href="#Times-114"/>
       <use x="247.216797" xlink:href="#Times-105"/>
       <use x="276.611328" xlink:href="#Times-99"/>
       <use x="326.513672" xlink:href="#Times-103"/>
       <use x="375.610352" xlink:href="#Times-117"/>
       <use x="432.421875" xlink:href="#Times-105"/>
       <use x="461.816406" xlink:href="#Times-116"/>
       <use x="495.019531" xlink:href="#Times-97"/>
       <use x="544.53125" xlink:href="#Times-114"/>
      </g>
     </g>
    </g>
    <g id="xtick_27">
     <g id="line2d_27"/>
     <g id="text_27">
      <!-- computer -->
      <g style="fill:#262626;" transform="translate(339.336578 226.301563)rotate(-90)scale(0.1 -0.1)">
       <use xlink:href="#Times-99"/>
       <use x="49.902344" xlink:href="#Times-111"/>
       <use x="106.494141" xlink:href="#Times-109"/>
       <use x="195.19043" xlink:href="#Times-112"/>
       <use x="251.489258" xlink:href="#Times-117"/>
       <use x="308.300781" xlink:href="#Times-116"/>
       <use x="341.503906" xlink:href="#Times-101"/>
       <use x="390.405273" xlink:href="#Times-114"/>
      </g>
     </g>
    </g>
    <g id="xtick_28">
     <g id="line2d_28"/>
     <g id="text_28">
      <!-- keyboard -->
      <g style="fill:#262626;" transform="translate(350.303471 224.151563)rotate(-90)scale(0.1 -0.1)">
       <use xlink:href="#Times-107"/>
       <use x="53.198242" xlink:href="#Times-101"/>
       <use x="102.099609" xlink:href="#Times-121"/>
       <use x="152.392578" xlink:href="#Times-98"/>
       <use x="206.298828" xlink:href="#Times-111"/>
       <use x="262.890625" xlink:href="#Times-97"/>
       <use x="312.402344" xlink:href="#Times-114"/>
       <use x="350" xlink:href="#Times-100"/>
      </g>
     </g>
    </g>
    <g id="xtick_29">
     <g id="line2d_29"/>
     <g id="text_29">
      <!-- acousticguitar -->
      <g style="fill:#262626;" transform="translate(361.270364 245.44375)rotate(-90)scale(0.1 -0.1)">
       <use xlink:href="#Times-97"/>
       <use x="49.511719" xlink:href="#Times-99"/>
       <use x="99.414062" xlink:href="#Times-111"/>
       <use x="156.005859" xlink:href="#Times-117"/>
       <use x="212.817383" xlink:href="#Times-115"/>
       <use x="251.318359" xlink:href="#Times-116"/>
       <use x="284.521484" xlink:href="#Times-105"/>
       <use x="313.916016" xlink:href="#Times-99"/>
       <use x="363.818359" xlink:href="#Times-103"/>
       <use x="412.915039" xlink:href="#Times-117"/>
       <use x="469.726562" xlink:href="#Times-105"/>
       <use x="499.121094" xlink:href="#Times-116"/>
       <use x="532.324219" xlink:href="#Times-97"/>
       <use x="581.835938" xlink:href="#Times-114"/>
      </g>
     </g>
    </g>
    <g id="xtick_30">
     <g id="line2d_30"/>
     <g id="text_30">
      <!-- violin -->
      <g style="fill:#262626;" transform="translate(372.267725 208.671875)rotate(-90)scale(0.1 -0.1)">
       <use xlink:href="#Times-118"/>
       <use x="48.608398" xlink:href="#Times-105"/>
       <use x="78.00293" xlink:href="#Times-111"/>
       <use x="134.594727" xlink:href="#Times-108"/>
       <use x="163.305664" xlink:href="#Times-105"/>
       <use x="192.700195" xlink:href="#Times-110"/>
      </g>
     </g>
    </g>
    <g id="xtick_31">
     <g id="line2d_31"/>
     <g id="text_31">
      <!-- drummachine -->
      <g style="fill:#262626;" transform="translate(383.244775 245.834375)rotate(-90)scale(0.1 -0.1)">
       <use xlink:href="#Times-100"/>
       <use x="56.494141" xlink:href="#Times-114"/>
       <use x="94.091797" xlink:href="#Times-117"/>
       <use x="150.90332" xlink:href="#Times-109"/>
       <use x="239.599609" xlink:href="#Times-109"/>
       <use x="328.295898" xlink:href="#Times-97"/>
       <use x="377.807617" xlink:href="#Times-99"/>
       <use x="427.709961" xlink:href="#Times-104"/>
       <use x="486.010742" xlink:href="#Times-105"/>
       <use x="515.405273" xlink:href="#Times-110"/>
       <use x="574.414062" xlink:href="#Times-101"/>
      </g>
     </g>
    </g>
    <g id="xtick_32">
     <g id="line2d_32"/>
     <g id="text_32">
      <!-- voice -->
      <g style="fill:#262626;" transform="translate(394.221824 206.840625)rotate(-90)scale(0.1 -0.1)">
       <use xlink:href="#Times-118"/>
       <use x="48.608398" xlink:href="#Times-111"/>
       <use x="105.200195" xlink:href="#Times-105"/>
       <use x="134.594727" xlink:href="#Times-99"/>
       <use x="184.49707" xlink:href="#Times-101"/>
      </g>
     </g>
    </g>
    <g id="xtick_33">
     <g id="line2d_33"/>
     <g id="text_33">
      <!-- electricpiano -->
      <g style="fill:#262626;" transform="translate(405.198873 241.234375)rotate(-90)scale(0.1 -0.1)">
       <use xlink:href="#Times-101"/>
       <use x="48.901367" xlink:href="#Times-108"/>
       <use x="77.612305" xlink:href="#Times-101"/>
       <use x="126.513672" xlink:href="#Times-99"/>
       <use x="176.416016" xlink:href="#Times-116"/>
       <use x="209.619141" xlink:href="#Times-114"/>
       <use x="247.216797" xlink:href="#Times-105"/>
       <use x="276.611328" xlink:href="#Times-99"/>
       <use x="326.513672" xlink:href="#Times-112"/>
       <use x="382.8125" xlink:href="#Times-105"/>
       <use x="412.207031" xlink:href="#Times-97"/>
       <use x="461.71875" xlink:href="#Times-110"/>
       <use x="520.727539" xlink:href="#Times-111"/>
      </g>
     </g>
    </g>
    <g id="xtick_34">
     <g id="line2d_34"/>
     <g id="text_34">
      <!-- strings -->
      <g style="fill:#262626;" transform="translate(416.15561 212.029688)rotate(-90)scale(0.1 -0.1)">
       <use xlink:href="#Times-115"/>
       <use x="38.500977" xlink:href="#Times-116"/>
       <use x="71.704102" xlink:href="#Times-114"/>
       <use x="109.301758" xlink:href="#Times-105"/>
       <use x="138.696289" xlink:href="#Times-110"/>
       <use x="197.705078" xlink:href="#Times-103"/>
       <use x="246.801758" xlink:href="#Times-115"/>
      </g>
     </g>
    </g>
    <g id="xtick_35">
     <g id="line2d_35"/>
     <g id="text_35">
      <!-- cello -->
      <g style="fill:#262626;" transform="translate(427.152971 204.784375)rotate(-90)scale(0.1 -0.1)">
       <use xlink:href="#Times-99"/>
       <use x="49.902344" xlink:href="#Times-101"/>
       <use x="98.803711" xlink:href="#Times-108"/>
       <use x="127.514648" xlink:href="#Times-108"/>
       <use x="156.225586" xlink:href="#Times-111"/>
      </g>
     </g>
    </g>
    <g id="xtick_36">
     <g id="line2d_36"/>
     <g id="text_36">
      <!-- sampler -->
      <g style="fill:#262626;" transform="translate(438.13002 218.323438)rotate(-90)scale(0.1 -0.1)">
       <use xlink:href="#Times-115"/>
       <use x="38.500977" xlink:href="#Times-97"/>
       <use x="88.012695" xlink:href="#Times-109"/>
       <use x="176.708984" xlink:href="#Times-112"/>
       <use x="233.007812" xlink:href="#Times-108"/>
       <use x="261.71875" xlink:href="#Times-101"/>
       <use x="310.620117" xlink:href="#Times-114"/>
      </g>
     </g>
    </g>
    <g id="xtick_37">
     <g id="line2d_37"/>
     <g id="text_37">
      <!-- percussion -->
      <g style="fill:#262626;" transform="translate(449.10707 230.651563)rotate(-90)scale(0.1 -0.1)">
       <use xlink:href="#Times-112"/>
       <use x="56.298828" xlink:href="#Times-101"/>
       <use x="105.200195" xlink:href="#Times-114"/>
       <use x="142.797852" xlink:href="#Times-99"/>
       <use x="192.700195" xlink:href="#Times-117"/>
       <use x="249.511719" xlink:href="#Times-115"/>
       <use x="288.012695" xlink:href="#Times-115"/>
       <use x="326.513672" xlink:href="#Times-105"/>
       <use x="355.908203" xlink:href="#Times-111"/>
       <use x="412.5" xlink:href="#Times-110"/>
      </g>
     </g>
    </g>
    <g id="xtick_38">
     <g id="line2d_38"/>
     <g id="text_38">
      <!-- saxophone -->
      <g style="fill:#262626;" transform="translate(460.084119 230.871875)rotate(-90)scale(0.1 -0.1)">
       <use xlink:href="#Times-115"/>
       <use x="38.500977" xlink:href="#Times-97"/>
       <use x="88.012695" xlink:href="#Times-120"/>
       <use x="138.012695" xlink:href="#Times-111"/>
       <use x="194.604492" xlink:href="#Times-112"/>
       <use x="250.90332" xlink:href="#Times-104"/>
       <use x="309.204102" xlink:href="#Times-111"/>
       <use x="365.795898" xlink:href="#Times-110"/>
       <use x="424.804688" xlink:href="#Times-101"/>
      </g>
     </g>
    </g>
    <g id="xtick_39">
     <g id="line2d_39"/>
     <g id="text_39">
      <!-- trumpet -->
      <g style="fill:#262626;" transform="translate(471.061168 218.971875)rotate(-90)scale(0.1 -0.1)">
       <use xlink:href="#Times-116"/>
       <use x="33.203125" xlink:href="#Times-114"/>
       <use x="70.800781" xlink:href="#Times-117"/>
       <use x="127.612305" xlink:href="#Times-109"/>
       <use x="216.308594" xlink:href="#Times-112"/>
       <use x="272.607422" xlink:href="#Times-101"/>
       <use x="321.508789" xlink:href="#Times-116"/>
      </g>
     </g>
    </g>
    <g id="xtick_40">
     <g id="line2d_40"/>
     <g id="text_40">
      <!-- flute -->
      <g style="fill:#262626;" transform="translate(482.038217 203.484375)rotate(-90)scale(0.1 -0.1)">
       <use xlink:href="#Times-102"/>
       <use x="32.202148" xlink:href="#Times-108"/>
       <use x="60.913086" xlink:href="#Times-117"/>
       <use x="117.724609" xlink:href="#Times-116"/>
       <use x="150.927734" xlink:href="#Times-101"/>
      </g>
     </g>
    </g>
    <g id="xtick_41">
     <g id="line2d_41"/>
     <g id="text_41">
      <!-- happy -->
      <g style="fill:#262626;" transform="translate(493.00511 210.570312)rotate(-90)scale(0.1 -0.1)">
       <use xlink:href="#Times-104"/>
       <use x="58.300781" xlink:href="#Times-97"/>
       <use x="107.8125" xlink:href="#Times-112"/>
       <use x="164.111328" xlink:href="#Times-112"/>
       <use x="220.410156" xlink:href="#Times-121"/>
      </g>
     </g>
    </g>
    <g id="xtick_42">
     <g id="line2d_42"/>
     <g id="text_42">
      <!-- film -->
      <g style="fill:#262626;" transform="translate(503.992316 201.401563)rotate(-90)scale(0.1 -0.1)">
       <use xlink:href="#Times-102"/>
       <use x="32.202148" xlink:href="#Times-105"/>
       <use x="61.59668" xlink:href="#Times-108"/>
       <use x="90.307617" xlink:href="#Times-109"/>
      </g>
     </g>
    </g>
    <g id="xtick_43">
     <g id="line2d_43"/>
     <g id="text_43">
      <!-- energetic -->
      <g style="fill:#262626;" transform="translate(514.949052 223.992188)rotate(-90)scale(0.1 -0.1)">
       <use xlink:href="#Times-101"/>
       <use x="48.901367" xlink:href="#Times-110"/>
       <use x="107.910156" xlink:href="#Times-101"/>
       <use x="156.811523" xlink:href="#Times-114"/>
       <use x="194.40918" xlink:href="#Times-103"/>
       <use x="243.505859" xlink:href="#Times-101"/>
       <use x="292.407227" xlink:href="#Times-116"/>
       <use x="325.610352" xlink:href="#Times-105"/>
       <use x="355.004883" xlink:href="#Times-99"/>
      </g>
     </g>
    </g>
    <g id="xtick_44">
     <g id="line2d_44"/>
     <g id="text_44">
      <!-- relaxing -->
      <g style="fill:#262626;" transform="translate(525.936258 218.723438)rotate(-90)scale(0.1 -0.1)">
       <use xlink:href="#Times-114"/>
       <use x="37.597656" xlink:href="#Times-101"/>
       <use x="86.499023" xlink:href="#Times-108"/>
       <use x="115.209961" xlink:href="#Times-97"/>
       <use x="164.72168" xlink:href="#Times-120"/>
       <use x="214.72168" xlink:href="#Times-105"/>
       <use x="244.116211" xlink:href="#Times-110"/>
       <use x="303.125" xlink:href="#Times-103"/>
      </g>
     </g>
    </g>
    <g id="xtick_45">
     <g id="line2d_45"/>
     <g id="text_45">
      <!-- emotional -->
      <g style="fill:#262626;" transform="translate(536.923463 228.564063)rotate(-90)scale(0.1 -0.1)">
       <use xlink:href="#Times-101"/>
       <use x="48.901367" xlink:href="#Times-109"/>
       <use x="137.597656" xlink:href="#Times-111"/>
       <use x="194.189453" xlink:href="#Times-116"/>
       <use x="227.392578" xlink:href="#Times-105"/>
       <use x="256.787109" xlink:href="#Times-111"/>
       <use x="313.378906" xlink:href="#Times-110"/>
       <use x="372.387695" xlink:href="#Times-97"/>
       <use x="421.899414" xlink:href="#Times-108"/>
      </g>
     </g>
    </g>
    <g id="xtick_46">
     <g id="line2d_46"/>
     <g id="text_46">
      <!-- melodic -->
      <g style="fill:#262626;" transform="translate(547.900512 219.371875)rotate(-90)scale(0.1 -0.1)">
       <use xlink:href="#Times-109"/>
       <use x="88.696289" xlink:href="#Times-101"/>
       <use x="137.597656" xlink:href="#Times-108"/>
       <use x="166.308594" xlink:href="#Times-111"/>
       <use x="222.900391" xlink:href="#Times-100"/>
       <use x="279.394531" xlink:href="#Times-105"/>
       <use x="308.789062" xlink:href="#Times-99"/>
      </g>
     </g>
    </g>
    <g id="xtick_47">
     <g id="line2d_47"/>
     <g id="text_47">
      <!-- dark -->
      <g style="fill:#262626;" transform="translate(558.877561 203.18125)rotate(-90)scale(0.1 -0.1)">
       <use xlink:href="#Times-100"/>
       <use x="56.494141" xlink:href="#Times-97"/>
       <use x="106.005859" xlink:href="#Times-114"/>
       <use x="143.603516" xlink:href="#Times-107"/>
      </g>
     </g>
    </g>
    <g id="xtick_48">
     <g id="line2d_48"/>
     <g id="text_48">
      <!-- epic -->
      <g style="fill:#262626;" transform="translate(569.854611 201.95)rotate(-90)scale(0.1 -0.1)">
       <use xlink:href="#Times-101"/>
       <use x="48.901367" xlink:href="#Times-112"/>
       <use x="105.200195" xlink:href="#Times-105"/>
       <use x="134.594727" xlink:href="#Times-99"/>
      </g>
     </g>
    </g>
    <g id="xtick_49">
     <g id="line2d_49"/>
     <g id="text_49">
      <!-- dream -->
      <g style="fill:#262626;" transform="translate(580.83166 211.621875)rotate(-90)scale(0.1 -0.1)">
       <use xlink:href="#Times-100"/>
       <use x="56.494141" xlink:href="#Times-114"/>
       <use x="94.091797" xlink:href="#Times-101"/>
       <use x="142.993164" xlink:href="#Times-97"/>
       <use x="192.504883" xlink:href="#Times-109"/>
      </g>
     </g>
    </g>
    <g id="xtick_50">
     <g id="line2d_50"/>
     <g id="text_50">
      <!-- love -->
      <g style="fill:#262626;" transform="translate(591.808709 201.782813)rotate(-90)scale(0.1 -0.1)">
       <use xlink:href="#Times-108"/>
       <use x="28.710938" xlink:href="#Times-111"/>
       <use x="85.302734" xlink:href="#Times-118"/>
       <use x="133.911133" xlink:href="#Times-101"/>
      </g>
     </g>
    </g>
    <g id="xtick_51">
     <g id="line2d_51"/>
     <g id="text_51">
      <!-- inspiring -->
      <g style="fill:#262626;" transform="translate(602.765446 222.26875)rotate(-90)scale(0.1 -0.1)">
       <use xlink:href="#Times-105"/>
       <use x="29.394531" xlink:href="#Times-110"/>
       <use x="88.40332" xlink:href="#Times-115"/>
       <use x="126.904297" xlink:href="#Times-112"/>
       <use x="183.203125" xlink:href="#Times-105"/>
       <use x="212.597656" xlink:href="#Times-114"/>
       <use x="250.195312" xlink:href="#Times-105"/>
       <use x="279.589844" xlink:href="#Times-110"/>
       <use x="338.598633" xlink:href="#Times-103"/>
      </g>
     </g>
    </g>
    <g id="xtick_52">
     <g id="line2d_52"/>
     <g id="text_52">
      <!-- sad -->
      <g style="fill:#262626;" transform="translate(613.762807 197.951563)rotate(-90)scale(0.1 -0.1)">
       <use xlink:href="#Times-115"/>
       <use x="38.500977" xlink:href="#Times-97"/>
       <use x="88.012695" xlink:href="#Times-100"/>
      </g>
     </g>
    </g>
    <g id="xtick_53">
     <g id="line2d_53"/>
     <g id="text_53">
      <!-- meditative -->
      <g style="fill:#262626;" transform="translate(624.739857 230.132812)rotate(-90)scale(0.1 -0.1)">
       <use xlink:href="#Times-109"/>
       <use x="88.696289" xlink:href="#Times-101"/>
       <use x="137.597656" xlink:href="#Times-100"/>
       <use x="194.091797" xlink:href="#Times-105"/>
       <use x="223.486328" xlink:href="#Times-116"/>
       <use x="256.689453" xlink:href="#Times-97"/>
       <use x="306.201172" xlink:href="#Times-116"/>
       <use x="339.404297" xlink:href="#Times-105"/>
       <use x="368.798828" xlink:href="#Times-118"/>
       <use x="417.407227" xlink:href="#Times-101"/>
      </g>
     </g>
    </g>
    <g id="xtick_54">
     <g id="line2d_54"/>
     <g id="text_54">
      <!-- uplifting -->
      <g style="fill:#262626;" transform="translate(635.706749 220.9125)rotate(-90)scale(0.1 -0.1)">
       <use xlink:href="#Times-117"/>
       <use x="56.811523" xlink:href="#Times-112"/>
       <use x="113.110352" xlink:href="#Times-108"/>
       <use x="141.821289" xlink:href="#Times-105"/>
       <use x="171.21582" xlink:href="#Times-102"/>
       <use x="203.417969" xlink:href="#Times-116"/>
       <use x="236.621094" xlink:href="#Times-105"/>
       <use x="266.015625" xlink:href="#Times-110"/>
       <use x="325.024414" xlink:href="#Times-103"/>
      </g>
     </g>
    </g>
    <g id="xtick_55">
     <g id="line2d_55"/>
     <g id="text_55">
      <!-- advertising -->
      <g style="fill:#262626;" transform="translate(646.683799 231.471875)rotate(-90)scale(0.1 -0.1)">
       <use xlink:href="#Times-97"/>
       <use x="49.511719" xlink:href="#Times-100"/>
       <use x="106.005859" xlink:href="#Times-118"/>
       <use x="154.614258" xlink:href="#Times-101"/>
       <use x="203.515625" xlink:href="#Times-114"/>
       <use x="241.113281" xlink:href="#Times-116"/>
       <use x="274.316406" xlink:href="#Times-105"/>
       <use x="303.710938" xlink:href="#Times-115"/>
       <use x="342.211914" xlink:href="#Times-105"/>
       <use x="371.606445" xlink:href="#Times-110"/>
       <use x="430.615234" xlink:href="#Times-103"/>
      </g>
     </g>
    </g>
    <g id="xtick_56">
     <g id="line2d_56"/>
     <g id="text_56">
      <!-- motivational -->
      <g style="fill:#262626;" transform="translate(657.671004 239.745313)rotate(-90)scale(0.1 -0.1)">
       <use xlink:href="#Times-109"/>
       <use x="88.696289" xlink:href="#Times-111"/>
       <use x="145.288086" xlink:href="#Times-116"/>
       <use x="178.491211" xlink:href="#Times-105"/>
       <use x="207.885742" xlink:href="#Times-118"/>
       <use x="256.494141" xlink:href="#Times-97"/>
       <use x="306.005859" xlink:href="#Times-116"/>
       <use x="339.208984" xlink:href="#Times-105"/>
       <use x="368.603516" xlink:href="#Times-111"/>
       <use x="425.195312" xlink:href="#Times-110"/>
       <use x="484.204102" xlink:href="#Times-97"/>
       <use x="533.71582" xlink:href="#Times-108"/>
      </g>
     </g>
    </g>
    <g id="xtick_57">
     <g id="line2d_57"/>
     <g id="text_57">
      <!-- deep -->
      <g style="fill:#262626;" transform="translate(668.648053 204.560938)rotate(-90)scale(0.1 -0.1)">
       <use xlink:href="#Times-100"/>
       <use x="56.494141" xlink:href="#Times-101"/>
       <use x="105.395508" xlink:href="#Times-101"/>
       <use x="154.296875" xlink:href="#Times-112"/>
      </g>
     </g>
    </g>
    <g id="xtick_58">
     <g id="line2d_58"/>
     <g id="text_58">
      <!-- romantic -->
      <g style="fill:#262626;" transform="translate(679.625102 223.892188)rotate(-90)scale(0.1 -0.1)">
       <use xlink:href="#Times-114"/>
       <use x="37.597656" xlink:href="#Times-111"/>
       <use x="94.189453" xlink:href="#Times-109"/>
       <use x="182.885742" xlink:href="#Times-97"/>
       <use x="232.397461" xlink:href="#Times-110"/>
       <use x="291.40625" xlink:href="#Times-116"/>
       <use x="324.609375" xlink:href="#Times-105"/>
       <use x="354.003906" xlink:href="#Times-99"/>
      </g>
     </g>
    </g>
    <g id="xtick_59">
     <g id="line2d_59"/>
     <g id="text_59">
      <!-- christmas -->
      <g style="fill:#262626;" transform="translate(690.602152 225.860938)rotate(-90)scale(0.1 -0.1)">
       <use xlink:href="#Times-99"/>
       <use x="49.902344" xlink:href="#Times-104"/>
       <use x="108.203125" xlink:href="#Times-114"/>
       <use x="145.800781" xlink:href="#Times-105"/>
       <use x="175.195312" xlink:href="#Times-115"/>
       <use x="213.696289" xlink:href="#Times-116"/>
       <use x="246.899414" xlink:href="#Times-109"/>
       <use x="335.595703" xlink:href="#Times-97"/>
       <use x="385.107422" xlink:href="#Times-115"/>
      </g>
     </g>
    </g>
    <g id="xtick_60">
     <g id="line2d_60"/>
     <g id="text_60">
      <!-- documentary -->
      <g style="fill:#262626;" transform="translate(701.569045 242.204688)rotate(-90)scale(0.1 -0.1)">
       <use xlink:href="#Times-100"/>
       <use x="56.494141" xlink:href="#Times-111"/>
       <use x="113.085938" xlink:href="#Times-99"/>
       <use x="162.988281" xlink:href="#Times-117"/>
       <use x="219.799805" xlink:href="#Times-109"/>
       <use x="308.496094" xlink:href="#Times-101"/>
       <use x="357.397461" xlink:href="#Times-110"/>
       <use x="416.40625" xlink:href="#Times-116"/>
       <use x="449.609375" xlink:href="#Times-97"/>
       <use x="499.121094" xlink:href="#Times-114"/>
       <use x="536.71875" xlink:href="#Times-121"/>
      </g>
     </g>
    </g>
   </g>
   <g id="matplotlib.axis_2">
    <g id="ytick_1">
     <g id="line2d_61"/>
     <g id="text_61">
      <!-- 4k -->
      <defs>
       <path d="M 2.8125 20 
L 2.8125 28.71875 
L 35.109375 75.203125 
L 40.703125 75.203125 
L 40.703125 27.703125 
L 50.390625 27.703125 
L 50.390625 20 
L 40.703125 20 
L 40.703125 0 
L 31.5 0 
L 31.5 20 
z
M 7.40625 27.703125 
L 31.5 27.703125 
L 31.5 62.5 
z
" id="Times-52"/>
      </defs>
      <g style="fill:#262626;" transform="translate(25.979688 145.380469)scale(0.1 -0.1)">
       <use xlink:href="#Times-52"/>
       <use x="53.198242" xlink:href="#Times-107"/>
      </g>
     </g>
    </g>
    <g id="ytick_2">
     <g id="line2d_62"/>
     <g id="text_62">
      <!-- 8k -->
      <defs>
       <path d="M 21.1875 37.203125 
Q 13.921875 42.828125 10.859375 47.4375 
Q 7.796875 52.046875 7.796875 57.90625 
Q 7.796875 63.328125 10.3125 67.25 
Q 12.84375 71.1875 17.140625 73.1875 
Q 21.4375 75.203125 26.609375 75.203125 
Q 31.71875 75.203125 36.015625 73.125 
Q 40.3125 71.046875 42.796875 67.21875 
Q 45.296875 63.40625 45.296875 58.5 
Q 45.296875 53.546875 42.28125 49.46875 
Q 39.28125 45.390625 31.390625 40.59375 
Q 36.84375 35.9375 39.875 32.78125 
Q 42.921875 29.640625 44.8125 25.78125 
Q 46.703125 21.921875 46.703125 17.21875 
Q 46.703125 12.015625 44.375 7.890625 
Q 42.046875 3.765625 37.296875 1.375 
Q 32.546875 -1 25.609375 -1 
Q 20.515625 -1 16.078125 1.0625 
Q 11.640625 3.125 9.015625 7.09375 
Q 6.390625 11.078125 6.390625 16.5 
Q 6.390625 21.921875 9.53125 26.734375 
Q 12.671875 31.546875 21.1875 37.203125 
z
M 28.90625 42.609375 
Q 38.3125 48.296875 38.3125 59.109375 
Q 38.3125 66.328125 34.59375 69.3125 
Q 30.890625 72.296875 26.609375 72.296875 
Q 24.046875 72.296875 21.578125 71.015625 
Q 19.125 69.75 17.5 67.140625 
Q 15.890625 64.53125 15.890625 60.796875 
Q 15.890625 57.375 17.53125 54.421875 
Q 19.1875 51.46875 21.65625 49.046875 
Q 24.140625 46.625 28.90625 42.609375 
z
M 23.515625 35.109375 
Q 13.984375 27.4375 13.984375 16.21875 
Q 13.984375 9.671875 17.75 5.984375 
Q 21.515625 2.296875 26.90625 2.296875 
Q 31.546875 2.296875 35.125 5.09375 
Q 38.703125 7.90625 38.703125 13.59375 
Q 38.703125 17.328125 36.671875 20.8125 
Q 34.640625 24.296875 32.03125 26.953125 
Q 29.421875 29.609375 23.515625 35.109375 
z
" id="Times-56"/>
      </defs>
      <g style="fill:#262626;" transform="translate(25.989063 106.980469)scale(0.1 -0.1)">
       <use xlink:href="#Times-56"/>
       <use x="53.100586" xlink:href="#Times-107"/>
      </g>
     </g>
    </g>
    <g id="ytick_3">
     <g id="line2d_63"/>
     <g id="text_63">
      <!-- 12k -->
      <defs>
       <path d="M 13.3125 65.796875 
L 32.796875 75.203125 
L 32.796875 8.796875 
Q 32.796875 5.59375 34.546875 3.4375 
Q 36.3125 1.296875 41.796875 1.296875 
L 43.609375 1.296875 
L 43.609375 0 
L 12.3125 0 
L 12.3125 1.296875 
L 14.203125 1.296875 
Q 23.09375 1.296875 23.09375 8.5 
L 23.09375 60.59375 
Q 23.09375 65.984375 19 65.984375 
Q 17.40625 65.984375 14.109375 64.203125 
z
" id="Times-49"/>
       <path d="M 15.21875 8.296875 
L 37.890625 8.296875 
Q 41.75 8.296875 44.28125 9.53125 
Q 46.828125 10.765625 48.515625 13.984375 
L 49.703125 13.5 
L 44.609375 0 
L 3.5 0 
L 16.796875 14.796875 
Q 18.453125 16.65625 22.421875 21.125 
Q 26.390625 25.609375 29.453125 30.140625 
Q 32.515625 34.671875 34.609375 40.078125 
Q 36.703125 45.484375 36.703125 51.09375 
Q 36.703125 55.609375 34.734375 59.3125 
Q 32.765625 63.015625 29.296875 65.109375 
Q 25.828125 67.21875 21.515625 67.21875 
Q 16.921875 67.21875 12.75 64.125 
Q 8.59375 61.03125 6.90625 55.109375 
L 5.203125 55.5 
Q 6.421875 62.625 11.09375 68.90625 
Q 15.765625 75.203125 25 75.203125 
Q 31.203125 75.203125 36 72.546875 
Q 40.796875 69.890625 43.390625 65.15625 
Q 46 60.421875 46 54.296875 
Q 46 47.6875 43.21875 41.453125 
Q 40.4375 35.234375 35.375 29.09375 
Q 30.328125 22.96875 22.515625 15.40625 
z
" id="Times-50"/>
      </defs>
      <g style="fill:#262626;" transform="translate(20.65 68.580469)scale(0.1 -0.1)">
       <use xlink:href="#Times-49"/>
       <use x="53.295898" xlink:href="#Times-50"/>
       <use x="106.494141" xlink:href="#Times-107"/>
      </g>
     </g>
    </g>
    <g id="ytick_4">
     <g id="line2d_64"/>
     <g id="text_64">
      <!-- 16k -->
      <defs>
       <path d="M 47.796875 78.8125 
L 48.1875 76.609375 
Q 43.625 75.78125 38.953125 73.671875 
Q 34.28125 71.578125 29.71875 67.515625 
Q 25.171875 63.453125 21.578125 56.890625 
Q 18 50.34375 16.21875 41.21875 
Q 19.90625 43.828125 23.03125 45.21875 
Q 26.15625 46.609375 29.71875 46.609375 
Q 35.0625 46.609375 39.390625 43.984375 
Q 43.734375 41.375 46.21875 36.34375 
Q 48.703125 31.328125 48.703125 24.515625 
Q 48.703125 17.5 45.984375 11.65625 
Q 43.28125 5.828125 38.28125 2.40625 
Q 33.296875 -1 26.8125 -1 
Q 20.515625 -1 15.4375 2.640625 
Q 10.359375 6.296875 7.421875 13.5625 
Q 4.5 20.84375 4.5 31.109375 
Q 4.5 41.609375 7.921875 50.03125 
Q 11.359375 58.46875 17.34375 64.4375 
Q 23.34375 70.40625 31.1875 74.03125 
Q 39.046875 77.65625 47.796875 78.8125 
z
M 15.609375 37.3125 
Q 14.984375 34.015625 14.984375 27.296875 
Q 14.984375 18.359375 16.96875 12.90625 
Q 18.953125 7.46875 21.921875 5.28125 
Q 24.90625 3.09375 28.203125 3.09375 
Q 32.953125 3.09375 36.078125 6.875 
Q 39.203125 10.671875 39.203125 18.3125 
Q 39.203125 25.53125 37.578125 30.78125 
Q 35.96875 36.03125 33.015625 38.8125 
Q 30.0625 41.609375 26.09375 41.609375 
Q 23.34375 41.609375 20.5625 40.4375 
Q 17.78125 39.28125 15.609375 37.3125 
z
" id="Times-54"/>
      </defs>
      <g style="fill:#262626;" transform="translate(20.65 30.180469)scale(0.1 -0.1)">
       <use xlink:href="#Times-49"/>
       <use x="53.295898" xlink:href="#Times-54"/>
       <use x="106.494141" xlink:href="#Times-107"/>
      </g>
     </g>
    </g>
    <g id="text_65">
     <!-- # of tracks -->
     <defs>
      <path d="M 39.703125 4.71875 
L 35.109375 4.71875 
L 38.109375 21.40625 
L 21.609375 21.40625 
L 18.609375 4.71875 
L 13.984375 4.71875 
L 17 21.40625 
L 5.59375 21.40625 
L 6.59375 27 
L 18 27 
L 21.703125 47.703125 
L 10.296875 47.703125 
L 11.3125 53.296875 
L 22.703125 53.296875 
L 25.703125 70 
L 30.296875 70 
L 27.296875 53.296875 
L 43.703125 53.296875 
L 46.703125 70 
L 51.296875 70 
L 48.390625 53.296875 
L 59.6875 53.296875 
L 58.6875 47.703125 
L 47.40625 47.703125 
L 43.703125 27 
L 55 27 
L 54 21.40625 
L 42.703125 21.40625 
z
M 39.109375 27 
L 42.703125 47.703125 
L 26.296875 47.703125 
L 22.609375 27 
z
" id="Times-35"/>
      <path id="Times-32"/>
     </defs>
     <g style="fill:#262626;" transform="translate(14.760938 117.9125)rotate(-90)scale(0.1 -0.1)">
      <use xlink:href="#Times-35"/>
      <use x="65.307617" xlink:href="#Times-32"/>
      <use x="100.415039" xlink:href="#Times-111"/>
      <use x="157.006836" xlink:href="#Times-102"/>
      <use x="189.208984" xlink:href="#Times-32"/>
      <use x="224.316406" xlink:href="#Times-116"/>
      <use x="257.519531" xlink:href="#Times-114"/>
      <use x="295.117188" xlink:href="#Times-97"/>
      <use x="344.628906" xlink:href="#Times-99"/>
      <use x="394.53125" xlink:href="#Times-107"/>
      <use x="447.729492" xlink:href="#Times-115"/>
     </g>
    </g>
   </g>
   <g id="patch_3">
    <path clip-path="url(#pe908edf1ed)" d="M 46.706542 180 
L 55.488181 180 
L 55.488181 21.792 
L 46.706542 21.792 
z
" style="fill:#1f77b4;"/>
   </g>
   <g id="patch_4">
    <path clip-path="url(#pe908edf1ed)" d="M 57.683591 180 
L 66.465231 180 
L 66.465231 102.2976 
L 57.683591 102.2976 
z
" style="fill:#1f77b4;"/>
   </g>
   <g id="patch_5">
    <path clip-path="url(#pe908edf1ed)" d="M 68.66064 180 
L 77.44228 180 
L 77.44228 105.072 
L 68.66064 105.072 
z
" style="fill:#1f77b4;"/>
   </g>
   <g id="patch_6">
    <path clip-path="url(#pe908edf1ed)" d="M 79.63769 180 
L 88.419329 180 
L 88.419329 107.328 
L 79.63769 107.328 
z
" style="fill:#1f77b4;"/>
   </g>
   <g id="patch_7">
    <path clip-path="url(#pe908edf1ed)" d="M 90.614739 180 
L 99.396378 180 
L 99.396378 114.096 
L 90.614739 114.096 
z
" style="fill:#1f77b4;"/>
   </g>
   <g id="patch_8">
    <path clip-path="url(#pe908edf1ed)" d="M 101.591788 180 
L 110.373427 180 
L 110.373427 126.2208 
L 101.591788 126.2208 
z
" style="fill:#1f77b4;"/>
   </g>
   <g id="patch_9">
    <path clip-path="url(#pe908edf1ed)" d="M 112.568837 180 
L 121.350476 180 
L 121.350476 133.6032 
L 112.568837 133.6032 
z
" style="fill:#1f77b4;"/>
   </g>
   <g id="patch_10">
    <path clip-path="url(#pe908edf1ed)" d="M 123.545886 180 
L 132.327526 180 
L 132.327526 142.1664 
L 123.545886 142.1664 
z
" style="fill:#1f77b4;"/>
   </g>
   <g id="patch_11">
    <path clip-path="url(#pe908edf1ed)" d="M 134.522935 180 
L 143.304575 180 
L 143.304575 143.8944 
L 134.522935 143.8944 
z
" style="fill:#1f77b4;"/>
   </g>
   <g id="patch_12">
    <path clip-path="url(#pe908edf1ed)" d="M 145.499985 180 
L 154.281624 180 
L 154.281624 144.6912 
L 145.499985 144.6912 
z
" style="fill:#1f77b4;"/>
   </g>
   <g id="patch_13">
    <path clip-path="url(#pe908edf1ed)" d="M 156.477034 180 
L 165.258673 180 
L 165.258673 152.8608 
L 156.477034 152.8608 
z
" style="fill:#1f77b4;"/>
   </g>
   <g id="patch_14">
    <path clip-path="url(#pe908edf1ed)" d="M 167.454083 180 
L 176.235722 180 
L 176.235722 154.4928 
L 167.454083 154.4928 
z
" style="fill:#1f77b4;"/>
   </g>
   <g id="patch_15">
    <path clip-path="url(#pe908edf1ed)" d="M 178.431132 180 
L 187.212772 180 
L 187.212772 154.7328 
L 178.431132 154.7328 
z
" style="fill:#1f77b4;"/>
   </g>
   <g id="patch_16">
    <path clip-path="url(#pe908edf1ed)" d="M 189.408181 180 
L 198.189821 180 
L 198.189821 156.0192 
L 189.408181 156.0192 
z
" style="fill:#1f77b4;"/>
   </g>
   <g id="patch_17">
    <path clip-path="url(#pe908edf1ed)" d="M 200.385231 180 
L 209.16687 180 
L 209.16687 156.6336 
L 200.385231 156.6336 
z
" style="fill:#1f77b4;"/>
   </g>
   <g id="patch_18">
    <path clip-path="url(#pe908edf1ed)" d="M 211.36228 180 
L 220.143919 180 
L 220.143919 157.2384 
L 211.36228 157.2384 
z
" style="fill:#1f77b4;"/>
   </g>
   <g id="patch_19">
    <path clip-path="url(#pe908edf1ed)" d="M 222.339329 180 
L 231.120968 180 
L 231.120968 158.3136 
L 222.339329 158.3136 
z
" style="fill:#1f77b4;"/>
   </g>
   <g id="patch_20">
    <path clip-path="url(#pe908edf1ed)" d="M 233.316378 180 
L 242.098017 180 
L 242.098017 158.8608 
L 233.316378 158.8608 
z
" style="fill:#1f77b4;"/>
   </g>
   <g id="patch_21">
    <path clip-path="url(#pe908edf1ed)" d="M 244.293427 180 
L 253.075067 180 
L 253.075067 159.0816 
L 244.293427 159.0816 
z
" style="fill:#1f77b4;"/>
   </g>
   <g id="patch_22">
    <path clip-path="url(#pe908edf1ed)" d="M 255.270476 180 
L 264.052116 180 
L 264.052116 159.1488 
L 255.270476 159.1488 
z
" style="fill:#1f77b4;"/>
   </g>
   <g id="patch_23">
    <path clip-path="url(#pe908edf1ed)" d="M 266.247526 180 
L 275.029165 180 
L 275.029165 105.6 
L 266.247526 105.6 
z
" style="fill:#ff7f0e;"/>
   </g>
   <g id="patch_24">
    <path clip-path="url(#pe908edf1ed)" d="M 277.224575 180 
L 286.006214 180 
L 286.006214 108.0384 
L 277.224575 108.0384 
z
" style="fill:#ff7f0e;"/>
   </g>
   <g id="patch_25">
    <path clip-path="url(#pe908edf1ed)" d="M 288.201624 180 
L 296.983263 180 
L 296.983263 121.248 
L 288.201624 121.248 
z
" style="fill:#ff7f0e;"/>
   </g>
   <g id="patch_26">
    <path clip-path="url(#pe908edf1ed)" d="M 299.178673 180 
L 307.960313 180 
L 307.960313 125.0304 
L 299.178673 125.0304 
z
" style="fill:#ff7f0e;"/>
   </g>
   <g id="patch_27">
    <path clip-path="url(#pe908edf1ed)" d="M 310.155722 180 
L 318.937362 180 
L 318.937362 133.8816 
L 310.155722 133.8816 
z
" style="fill:#ff7f0e;"/>
   </g>
   <g id="patch_28">
    <path clip-path="url(#pe908edf1ed)" d="M 321.132772 180 
L 329.914411 180 
L 329.914411 139.2864 
L 321.132772 139.2864 
z
" style="fill:#ff7f0e;"/>
   </g>
   <g id="patch_29">
    <path clip-path="url(#pe908edf1ed)" d="M 332.109821 180 
L 340.89146 180 
L 340.89146 160.032 
L 332.109821 160.032 
z
" style="fill:#ff7f0e;"/>
   </g>
   <g id="patch_30">
    <path clip-path="url(#pe908edf1ed)" d="M 343.08687 180 
L 351.868509 180 
L 351.868509 160.3776 
L 343.08687 160.3776 
z
" style="fill:#ff7f0e;"/>
   </g>
   <g id="patch_31">
    <path clip-path="url(#pe908edf1ed)" d="M 354.063919 180 
L 362.845558 180 
L 362.845558 161.3088 
L 354.063919 161.3088 
z
" style="fill:#ff7f0e;"/>
   </g>
   <g id="patch_32">
    <path clip-path="url(#pe908edf1ed)" d="M 365.040968 180 
L 373.822608 180 
L 373.822608 162.3648 
L 365.040968 162.3648 
z
" style="fill:#ff7f0e;"/>
   </g>
   <g id="patch_33">
    <path clip-path="url(#pe908edf1ed)" d="M 376.018017 180 
L 384.799657 180 
L 384.799657 163.0656 
L 376.018017 163.0656 
z
" style="fill:#ff7f0e;"/>
   </g>
   <g id="patch_34">
    <path clip-path="url(#pe908edf1ed)" d="M 386.995067 180 
L 395.776706 180 
L 395.776706 164.6016 
L 386.995067 164.6016 
z
" style="fill:#ff7f0e;"/>
   </g>
   <g id="patch_35">
    <path clip-path="url(#pe908edf1ed)" d="M 397.972116 180 
L 406.753755 180 
L 406.753755 167.6928 
L 397.972116 167.6928 
z
" style="fill:#ff7f0e;"/>
   </g>
   <g id="patch_36">
    <path clip-path="url(#pe908edf1ed)" d="M 408.949165 180 
L 417.730804 180 
L 417.730804 167.7312 
L 408.949165 167.7312 
z
" style="fill:#ff7f0e;"/>
   </g>
   <g id="patch_37">
    <path clip-path="url(#pe908edf1ed)" d="M 419.926214 180 
L 428.707853 180 
L 428.707853 169.3056 
L 419.926214 169.3056 
z
" style="fill:#ff7f0e;"/>
   </g>
   <g id="patch_38">
    <path clip-path="url(#pe908edf1ed)" d="M 430.903263 180 
L 439.684903 180 
L 439.684903 169.728 
L 430.903263 169.728 
z
" style="fill:#ff7f0e;"/>
   </g>
   <g id="patch_39">
    <path clip-path="url(#pe908edf1ed)" d="M 441.880313 180 
L 450.661952 180 
L 450.661952 171.2832 
L 441.880313 171.2832 
z
" style="fill:#ff7f0e;"/>
   </g>
   <g id="patch_40">
    <path clip-path="url(#pe908edf1ed)" d="M 452.857362 180 
L 461.639001 180 
L 461.639001 171.4464 
L 452.857362 171.4464 
z
" style="fill:#ff7f0e;"/>
   </g>
   <g id="patch_41">
    <path clip-path="url(#pe908edf1ed)" d="M 463.834411 180 
L 472.61605 180 
L 472.61605 171.6192 
L 463.834411 171.6192 
z
" style="fill:#ff7f0e;"/>
   </g>
   <g id="patch_42">
    <path clip-path="url(#pe908edf1ed)" d="M 474.81146 180 
L 483.593099 180 
L 483.593099 171.7536 
L 474.81146 171.7536 
z
" style="fill:#ff7f0e;"/>
   </g>
   <g id="patch_43">
    <path clip-path="url(#pe908edf1ed)" d="M 485.788509 180 
L 494.570149 180 
L 494.570149 164.0928 
L 485.788509 164.0928 
z
" style="fill:#2ca02c;"/>
   </g>
   <g id="patch_44">
    <path clip-path="url(#pe908edf1ed)" d="M 496.765558 180 
L 505.547198 180 
L 505.547198 165.5808 
L 496.765558 165.5808 
z
" style="fill:#2ca02c;"/>
   </g>
   <g id="patch_45">
    <path clip-path="url(#pe908edf1ed)" d="M 507.742608 180 
L 516.524247 180 
L 516.524247 166.9728 
L 507.742608 166.9728 
z
" style="fill:#2ca02c;"/>
   </g>
   <g id="patch_46">
    <path clip-path="url(#pe908edf1ed)" d="M 518.719657 180 
L 527.501296 180 
L 527.501296 167.04 
L 518.719657 167.04 
z
" style="fill:#2ca02c;"/>
   </g>
   <g id="patch_47">
    <path clip-path="url(#pe908edf1ed)" d="M 529.696706 180 
L 538.478345 180 
L 538.478345 167.7984 
L 529.696706 167.7984 
z
" style="fill:#2ca02c;"/>
   </g>
   <g id="patch_48">
    <path clip-path="url(#pe908edf1ed)" d="M 540.673755 180 
L 549.455394 180 
L 549.455394 168.3552 
L 540.673755 168.3552 
z
" style="fill:#2ca02c;"/>
   </g>
   <g id="patch_49">
    <path clip-path="url(#pe908edf1ed)" d="M 551.650804 180 
L 560.432444 180 
L 560.432444 168.4608 
L 551.650804 168.4608 
z
" style="fill:#2ca02c;"/>
   </g>
   <g id="patch_50">
    <path clip-path="url(#pe908edf1ed)" d="M 562.627853 180 
L 571.409493 180 
L 571.409493 170.5728 
L 562.627853 170.5728 
z
" style="fill:#2ca02c;"/>
   </g>
   <g id="patch_51">
    <path clip-path="url(#pe908edf1ed)" d="M 573.604903 180 
L 582.386542 180 
L 582.386542 170.8704 
L 573.604903 170.8704 
z
" style="fill:#2ca02c;"/>
   </g>
   <g id="patch_52">
    <path clip-path="url(#pe908edf1ed)" d="M 584.581952 180 
L 593.363591 180 
L 593.363591 171.2736 
L 584.581952 171.2736 
z
" style="fill:#2ca02c;"/>
   </g>
   <g id="patch_53">
    <path clip-path="url(#pe908edf1ed)" d="M 595.559001 180 
L 604.34064 180 
L 604.34064 171.5808 
L 595.559001 171.5808 
z
" style="fill:#2ca02c;"/>
   </g>
   <g id="patch_54">
    <path clip-path="url(#pe908edf1ed)" d="M 606.53605 180 
L 615.31769 180 
L 615.31769 172.8096 
L 606.53605 172.8096 
z
" style="fill:#2ca02c;"/>
   </g>
   <g id="patch_55">
    <path clip-path="url(#pe908edf1ed)" d="M 617.513099 180 
L 626.294739 180 
L 626.294739 172.8768 
L 617.513099 172.8768 
z
" style="fill:#2ca02c;"/>
   </g>
   <g id="patch_56">
    <path clip-path="url(#pe908edf1ed)" d="M 628.490149 180 
L 637.271788 180 
L 637.271788 173.3472 
L 628.490149 173.3472 
z
" style="fill:#2ca02c;"/>
   </g>
   <g id="patch_57">
    <path clip-path="url(#pe908edf1ed)" d="M 639.467198 180 
L 648.248837 180 
L 648.248837 173.5392 
L 639.467198 173.5392 
z
" style="fill:#2ca02c;"/>
   </g>
   <g id="patch_58">
    <path clip-path="url(#pe908edf1ed)" d="M 650.444247 180 
L 659.225886 180 
L 659.225886 173.904 
L 650.444247 173.904 
z
" style="fill:#2ca02c;"/>
   </g>
   <g id="patch_59">
    <path clip-path="url(#pe908edf1ed)" d="M 661.421296 180 
L 670.202935 180 
L 670.202935 173.904 
L 661.421296 173.904 
z
" style="fill:#2ca02c;"/>
   </g>
   <g id="patch_60">
    <path clip-path="url(#pe908edf1ed)" d="M 672.398345 180 
L 681.179985 180 
L 681.179985 173.9808 
L 672.398345 173.9808 
z
" style="fill:#2ca02c;"/>
   </g>
   <g id="patch_61">
    <path clip-path="url(#pe908edf1ed)" d="M 683.375394 180 
L 692.157034 180 
L 692.157034 174.0192 
L 683.375394 174.0192 
z
" style="fill:#2ca02c;"/>
   </g>
   <g id="patch_62">
    <path clip-path="url(#pe908edf1ed)" d="M 694.352444 180 
L 703.134083 180 
L 703.134083 174.1248 
L 694.352444 174.1248 
z
" style="fill:#2ca02c;"/>
   </g>
   <g id="patch_63">
    <path d="M 40.120313 180 
L 40.120313 7.2 
" style="fill:none;stroke:#cccccc;stroke-linecap:square;stroke-linejoin:miter;"/>
   </g>
   <g id="patch_64">
    <path d="M 709.720313 180 
L 709.720313 7.2 
" style="fill:none;stroke:#cccccc;stroke-linecap:square;stroke-linejoin:miter;"/>
   </g>
   <g id="patch_65">
    <path d="M 40.120313 180 
L 709.720313 180 
" style="fill:none;stroke:#cccccc;stroke-linecap:square;stroke-linejoin:miter;"/>
   </g>
   <g id="patch_66">
    <path d="M 40.120313 7.2 
L 709.720313 7.2 
" style="fill:none;stroke:#cccccc;stroke-linecap:square;stroke-linejoin:miter;"/>
   </g>
   <g id="text_66">
    <!-- 16480 -->
    <defs>
     <path d="M 26.90625 -1 
Q 19.703125 -1 14.46875 4.203125 
Q 9.234375 9.421875 6.5625 18.15625 
Q 3.90625 26.90625 3.90625 37.109375 
Q 3.90625 47.1875 6.59375 55.96875 
Q 9.28125 64.75 14.4375 69.96875 
Q 19.609375 75.203125 26.609375 75.203125 
Q 33.578125 75.203125 38.703125 69.984375 
Q 43.84375 64.765625 46.515625 56 
Q 49.203125 47.234375 49.203125 37.109375 
Q 49.203125 30.890625 47.984375 24.25 
Q 46.78125 17.609375 44.140625 11.859375 
Q 41.5 6.125 37.171875 2.5625 
Q 32.84375 -1 26.90625 -1 
z
M 26.609375 2.390625 
Q 29.46875 2.390625 31.671875 4.109375 
Q 33.890625 5.828125 35.453125 9.78125 
Q 37.03125 13.75 37.859375 20.46875 
Q 38.703125 27.203125 38.703125 37.109375 
Q 38.703125 50.03125 37.234375 57.765625 
Q 35.765625 65.5 33.109375 68.640625 
Q 30.46875 71.796875 26.609375 71.796875 
Q 22.515625 71.796875 19.71875 68.640625 
Q 16.9375 65.5 15.453125 57.796875 
Q 13.984375 50.09375 13.984375 37.109375 
Q 13.984375 24.140625 15.453125 16.421875 
Q 16.9375 8.71875 19.71875 5.546875 
Q 22.515625 2.390625 26.609375 2.390625 
z
" id="Times-48"/>
    </defs>
    <g style="fill:#262626;" transform="translate(40.460487 18.912)scale(0.08 -0.08)">
     <use xlink:href="#Times-49"/>
     <use x="53.295898" xlink:href="#Times-54"/>
     <use x="106.494141" xlink:href="#Times-52"/>
     <use x="159.692383" xlink:href="#Times-56"/>
     <use x="212.792969" xlink:href="#Times-48"/>
    </g>
   </g>
   <g id="text_67">
    <!-- 7750 -->
    <defs>
     <path d="M 39.203125 64.703125 
L 19 64.703125 
Q 16.40625 64.703125 14.234375 64.1875 
Q 12.0625 63.671875 9.765625 61.65625 
Q 7.46875 59.640625 5.90625 55.6875 
L 4.296875 56.390625 
L 11.109375 74.1875 
L 48.8125 74.1875 
L 22.796875 0 
L 16.21875 0 
z
" id="Times-55"/>
     <path d="M 8.6875 46.1875 
L 21.515625 74.1875 
L 47.296875 74.1875 
L 43.1875 65.3125 
L 21.1875 65.3125 
L 16.40625 54.71875 
Q 24 53.90625 29.78125 51.25 
Q 35.578125 48.609375 39.3125 44.65625 
Q 43.0625 40.71875 44.875 35.890625 
Q 46.703125 31.0625 46.703125 25.8125 
Q 46.703125 18.328125 43.1875 12.21875 
Q 39.671875 6.109375 33.734375 2.59375 
Q 27.8125 -0.90625 20.90625 -0.90625 
Q 14.625 -0.90625 10.265625 0.234375 
Q 5.90625 1.390625 5.90625 5.203125 
Q 5.90625 7.078125 7.234375 8.28125 
Q 8.578125 9.5 10.5 9.5 
Q 12.921875 9.5 16.09375 7.109375 
Q 19.828125 3.90625 23.8125 3.90625 
Q 28.203125 3.90625 31.78125 6.203125 
Q 35.359375 8.5 37.328125 12.40625 
Q 39.3125 16.328125 39.3125 21 
Q 39.3125 25.59375 37.25 29.96875 
Q 35.1875 34.34375 31.265625 37.859375 
Q 27.34375 41.375 21.609375 43.59375 
Q 15.875 45.828125 8.6875 46.1875 
z
" id="Times-53"/>
    </defs>
    <g style="fill:#262626;" transform="translate(262.137095 102.72)scale(0.08 -0.08)">
     <use xlink:href="#Times-55"/>
     <use x="53.100586" xlink:href="#Times-55"/>
     <use x="106.201172" xlink:href="#Times-53"/>
     <use x="159.399414" xlink:href="#Times-48"/>
    </g>
   </g>
   <g id="text_68">
    <!-- 1657 -->
    <g style="fill:#262626;" transform="translate(481.666829 161.2128)scale(0.08 -0.08)">
     <use xlink:href="#Times-49"/>
     <use x="53.295898" xlink:href="#Times-54"/>
     <use x="106.494141" xlink:href="#Times-53"/>
     <use x="159.692383" xlink:href="#Times-55"/>
    </g>
   </g>
   <g id="text_69">
    <!-- 612 -->
    <g style="fill:#262626;" transform="translate(692.355138 171.2448)scale(0.08 -0.08)">
     <use xlink:href="#Times-54"/>
     <use x="53.198242" xlink:href="#Times-49"/>
     <use x="106.494141" xlink:href="#Times-50"/>
    </g>
   </g>
  </g>
 </g>
 <defs>
  <clipPath id="pe908edf1ed">
   <rect height="172.8" width="669.6" x="40.120313" y="7.2"/>
  </clipPath>
 </defs>
</svg>
